<svg width="99" height="76" viewBox="0 0 99 76" fill="none" xmlns="http://www.w3.org/2000/svg">
<path d="M0 33.2542C0.646622 32.8724 1.25219 32.2996 1.95013 32.1477C4.29644 31.6325 5.6759 30.4111 6.14188 27.9334C6.4149 26.4965 7.33454 25.1806 7.90316 23.7848C8.04624 23.4218 8.05353 23.0195 7.92369 22.6516C7.42692 21.5021 6.8624 20.3936 6.28147 19.2748C5.89555 18.5399 6.00024 17.9487 6.57707 17.3658C8.6969 15.2145 10.8058 13.0522 12.9037 10.879C13.4764 10.2858 14.0717 10.177 14.8107 10.5321C15.8823 11.0453 16.9826 11.4969 18.052 12.0101C18.557 12.2523 18.9553 12.2154 19.489 11.967C21.5192 11.0186 23.5945 10.1811 25.6473 9.24705C26.0554 9.05908 26.3866 8.73658 26.5854 8.33357C27.0295 7.23252 27.4173 6.10957 27.7473 4.96908C27.9998 4.14798 28.5006 3.7559 29.3628 3.7559C30.9701 3.7559 32.5774 3.71484 34.1827 3.71484C35.0839 3.71484 35.6381 4.18698 35.6012 4.92187C35.5601 5.74298 35.0572 6.11453 34.2689 6.13711C33.144 6.16995 32.0109 6.26233 30.8962 6.19869C30.0751 6.15148 29.7672 6.47582 29.5681 7.19839C29.3203 8.19541 28.9837 9.16821 28.5622 10.1051C28.3323 10.5875 27.8355 11.1315 27.347 11.2752C24.7011 12.0864 22.1569 13.198 19.7641 14.5884C19.3268 14.8429 18.5817 14.8306 18.0746 14.6582C16.9846 14.2928 15.95 13.7529 14.9072 13.2602C14.4782 13.0549 14.1867 13.0693 13.8295 13.447C12.3036 15.0564 10.7538 16.6425 9.17998 18.2053C8.81254 18.5728 8.79817 18.8561 9.03218 19.2954C9.57411 20.3217 10.1489 21.3317 10.541 22.4115C10.7319 22.9411 10.7462 23.7211 10.4896 24.1912C9.1652 26.5814 8.15968 29.1349 7.49876 31.7865C7.3756 32.2791 6.8583 32.8128 6.38411 33.051C5.32078 33.5662 4.15891 33.87 3.07915 34.3545C2.93158 34.436 2.80481 34.5504 2.70868 34.6889C2.61255 34.8274 2.54966 34.9862 2.52491 35.153C2.51054 37.37 2.53927 39.589 2.62344 41.804C2.65837 41.9853 2.73446 42.1563 2.84586 42.3036C2.95725 42.4509 3.10097 42.5708 3.26595 42.6538C4.33134 43.091 5.47063 43.36 6.52165 43.828C6.98762 44.0333 7.52545 44.5054 7.66093 44.9632C8.45644 47.6429 9.57449 50.2161 10.9905 52.6262C11.2255 53.1283 11.2586 53.7015 11.0829 54.2273C10.6722 55.3391 10.193 56.4244 9.64801 57.4768C9.42426 57.9346 9.50637 58.2138 9.85329 58.5545C11.4339 60.0613 13.0043 61.5844 14.5439 63.1343C14.9277 63.5181 15.2254 63.5879 15.7078 63.3252C16.6952 62.7894 17.7257 62.3357 18.7171 61.8102C19.0057 61.6339 19.3386 61.5434 19.6768 61.5496C20.0149 61.5558 20.3443 61.6583 20.6262 61.8451C22.9065 63.2308 25.4052 64.2199 28.0162 64.7703C28.3692 64.8203 28.6997 64.9728 28.9668 65.2089C29.2339 65.445 29.4259 65.7543 29.5188 66.0985C29.8596 67.1249 30.3132 68.1328 30.6335 69.1776C30.8223 69.7935 31.1384 69.9597 31.744 69.9146C32.5754 69.853 33.415 69.8756 34.2504 69.8715C35.0859 69.8674 35.5622 70.2615 35.5724 71.0723C35.5724 71.8298 35.1188 72.2547 34.3551 72.2814C32.9729 72.3307 31.5914 72.3656 30.2106 72.3861C29.5209 72.3964 29.0816 72.031 28.8476 71.3802C28.4226 70.202 28.0264 69.0155 27.5215 67.87C27.3339 67.4945 27.0198 67.1972 26.6347 67.0304C24.4793 66.1313 22.3054 65.2753 20.1212 64.4439C19.7881 64.315 19.42 64.3085 19.0825 64.4255C17.9391 64.9304 16.8245 65.495 15.7119 66.0677C14.9503 66.4659 14.3304 66.3797 13.7145 65.77C11.5906 63.6625 9.45163 61.5721 7.29759 59.4988C6.66739 58.883 6.58528 58.2672 6.94246 57.5056C7.5275 56.2555 8.52104 54.9868 8.51283 53.7305C8.50462 52.4742 7.43513 51.2672 6.89114 50.0171C6.42775 48.9594 6.02006 47.8782 5.66975 46.7778C5.49731 46.2277 5.25919 45.9177 4.68852 45.7514C3.58208 45.4271 2.50848 44.9899 1.40409 44.6553C0.539878 44.3966 0.153958 43.8937 0.15601 42.9761C0.15601 41.7916 0.0574775 40.6092 0 39.4248L0 33.2542Z" fill="white"/>
<path d="M36.8801 39.2257V36.7439H38.1303C53.6574 36.7439 69.1839 36.7494 84.7096 36.7604C85.5143 36.7604 85.9228 36.6228 86.2123 35.7607C86.7104 34.3362 87.6972 33.1343 88.9975 32.3684C90.2978 31.6025 91.8274 31.3221 93.3148 31.5771C94.8275 31.8282 96.2026 32.6063 97.1967 33.7739C98.1907 34.9414 98.7397 36.4229 98.7463 37.9563C98.7529 39.4897 98.2168 40.9759 97.2329 42.152C96.249 43.3281 94.8807 44.1181 93.3703 44.3823C91.8681 44.6527 90.3188 44.3758 89.0033 43.6019C87.6878 42.828 86.6932 41.6082 86.1999 40.1638C85.9228 39.3284 85.5266 39.2052 84.763 39.2052C69.2058 39.2244 53.6471 39.2291 38.0872 39.2196L36.8801 39.2257ZM96.2626 38.0084C96.2687 37.2145 96.0392 36.4366 95.6033 35.7731C95.1673 35.1095 94.5444 34.5901 93.8133 34.2805C93.0823 33.9709 92.2758 33.8849 91.4959 34.0336C90.716 34.1822 89.9976 34.5587 89.4316 35.1155C88.8657 35.6723 88.4775 36.3844 88.3161 37.1618C88.1547 37.9391 88.2275 38.7469 88.5251 39.483C88.8227 40.219 89.3319 40.8503 89.9882 41.2971C90.6445 41.7438 91.4186 41.9859 92.2125 41.9929C92.7419 42.0041 93.2682 41.9092 93.7604 41.7138C94.2525 41.5184 94.7006 41.2264 95.078 40.855C95.4555 40.4836 95.7548 40.0404 95.9583 39.5515C96.1617 39.0626 96.2652 38.538 96.2626 38.0084Z" fill="white"/>
<path d="M36.8781 32.4542V29.9909H37.9044C41.1889 29.9909 44.461 29.9909 47.7393 29.9909C50.3422 29.9909 51.9433 28.4759 52.1322 25.8853C52.4319 21.7798 55.0512 19.3309 59.1834 19.3165C62.1723 19.3042 65.1611 19.3042 68.1499 19.3165C68.7658 19.3165 69.088 19.22 69.3097 18.5282C69.795 16.9947 70.8367 15.6983 72.2299 14.8944C73.6231 14.0905 75.2667 13.8373 76.8372 14.1846C79.9041 14.8374 82.158 17.8036 81.9363 20.8889C81.8343 22.5103 81.1325 24.0356 79.9675 25.1679C78.8026 26.3002 77.2579 26.9584 75.6343 27.0144C74.2445 27.0534 72.8792 26.643 71.7413 25.8442C70.6033 25.0454 69.7535 23.9008 69.318 22.5804C69.1127 21.9194 68.8212 21.7593 68.1766 21.7593C65.1241 21.7921 62.0717 21.7593 59.0192 21.7778C56.3506 21.7921 54.6981 23.42 54.5893 26.0701C54.4477 29.4797 51.9084 32.2982 48.5378 32.4337C44.6909 32.5692 40.8358 32.4542 36.8781 32.4542ZM75.427 24.5613C76.4957 24.5613 77.5206 24.1368 78.2763 23.3811C79.032 22.6254 79.4566 21.6004 79.4566 20.5317C79.4566 19.463 79.032 18.4381 78.2763 17.6824C77.5206 16.9267 76.4957 16.5021 75.427 16.5021C74.3583 16.5021 73.3333 16.9267 72.5776 17.6824C71.822 18.4381 71.3974 19.463 71.3974 20.5317C71.3974 21.6004 71.822 22.6254 72.5776 23.3811C73.3333 24.1368 74.3583 24.5613 75.427 24.5613Z" fill="white"/>
<path d="M36.8965 45.9814V43.4996H40.3862C42.8618 43.4996 45.3354 43.4873 47.8111 43.4996C51.662 43.5242 54.4148 46.199 54.5852 50.0562C54.6919 52.4723 56.3567 54.1761 58.7667 54.211C61.9793 54.2582 65.1939 54.211 68.4147 54.2417C69.1085 54.2417 69.1537 53.8312 69.3118 53.3693C70.2683 50.5693 73.0067 48.7465 75.858 48.9867C78.9557 49.2453 81.2999 51.3556 81.8111 54.3547C82.0885 55.9537 81.7538 57.5986 80.8737 58.9622C79.9935 60.3258 78.6324 61.3081 77.061 61.7138C75.507 62.1293 73.8534 61.9425 72.4313 61.1907C71.0092 60.4389 69.9236 59.1777 69.3918 57.6596C69.1044 56.8385 68.737 56.6148 67.9015 56.6332C64.9455 56.6866 61.9895 56.664 59.0315 56.6517C55.0922 56.6353 52.4359 54.1535 52.128 50.2306C51.9063 47.3855 50.3709 45.9773 47.4888 45.9753L36.8965 45.9814ZM79.4668 55.5001C79.4778 54.4293 79.0636 53.3979 78.3151 52.6321C77.5666 51.8663 76.5449 51.4286 75.4742 51.4151C74.4049 51.4015 73.374 51.8132 72.6083 52.5596C71.8426 53.3061 71.4048 54.3261 71.3912 55.3954C71.3776 56.4647 71.7893 57.4955 72.5358 58.2612C73.2822 59.0269 74.3023 59.4648 75.3715 59.4784C76.4425 59.4926 77.4753 59.0812 78.2432 58.3345C79.011 57.5878 79.4511 56.5669 79.4668 55.496V55.5001Z" fill="white"/>
<path d="M36.8965 53.1355V50.5757C38.6762 50.6947 40.4293 50.6249 42.0982 50.9678C44.9557 51.5569 46.8031 53.4455 47.8295 56.1613C48.9257 59.107 50.0075 62.0568 51.114 65.0005C52.1198 67.6958 54.3142 69.0793 57.1778 68.9172C57.7752 68.8823 57.7937 68.5661 57.9004 68.133C58.2064 66.7256 58.9712 65.4597 60.0747 64.5342C61.1782 63.6086 62.558 63.0759 63.9971 63.0196C66.7971 62.8759 69.5088 64.787 70.3874 67.5192C70.8965 69.0958 70.7818 70.8076 70.067 72.3022C69.3521 73.7968 68.0915 74.9605 66.5446 75.5538C65.0194 76.155 63.3216 76.1483 61.8012 75.5349C60.2808 74.9216 59.0536 73.7483 58.3725 72.257C58.0544 71.5488 57.7054 71.3415 56.9582 71.3415C52.7788 71.3415 50.1368 69.4796 48.6814 65.5753C47.6756 62.8697 46.6759 60.1628 45.6823 57.4545C44.5389 54.3507 42.8085 53.1437 39.5117 53.1437C38.6537 53.1334 37.7956 53.1355 36.8965 53.1355ZM64.2517 73.5441C65.0483 73.5392 65.8255 73.2985 66.4854 72.8523C67.1453 72.4061 67.6582 71.7744 67.9594 71.0369C68.2606 70.2994 68.3366 69.4893 68.1777 68.7087C68.0189 67.9281 67.6324 67.212 67.067 66.6509C66.5015 66.0898 65.7826 65.7087 65.0008 65.5558C64.219 65.403 63.4094 65.4851 62.6743 65.7919C61.9392 66.0987 61.3114 66.6164 60.8702 67.2797C60.429 67.9429 60.1942 68.722 60.1954 69.5186C60.2115 70.5866 60.6449 71.6058 61.403 72.3581C62.1611 73.1105 63.1836 73.5362 64.2517 73.5441Z" fill="white"/>
<path d="M36.8923 25.3101V22.8303C37.9434 22.8303 38.9615 22.8303 39.9715 22.8303C42.6401 22.8303 44.5553 21.494 45.4955 18.9855C46.5978 16.0726 47.6673 13.1515 48.7532 10.2366C50.1265 6.54159 52.8116 4.65715 56.759 4.65921C57.5678 4.65921 58.0359 4.51962 58.4156 3.66361C59.6986 0.789738 62.9317 -0.612302 65.9842 0.253966C69.0366 1.12023 70.9272 3.98385 70.6029 7.26827C70.3011 10.3105 67.7126 12.704 64.4877 12.9195C61.5173 13.1248 58.6291 11.0146 57.9517 8.01959C57.7628 7.18411 57.4241 7.03631 56.6749 7.05684C53.9283 7.13074 52.0582 8.41372 51.0975 10.9858C50.0075 13.9008 48.9318 16.8198 47.8459 19.7347C46.5096 23.3148 43.7239 25.2772 39.9017 25.308C38.9143 25.3183 37.9269 25.3101 36.8923 25.3101ZM64.1942 10.4891C65.2639 10.4832 66.2883 10.0569 67.0465 9.30224C67.8046 8.54757 68.2356 7.52504 68.2463 6.45538C68.2509 5.38612 67.8306 4.35882 67.0778 3.59947C66.7051 3.22348 66.2619 2.92459 65.7736 2.71986C65.2854 2.51514 64.7616 2.40858 64.2321 2.40629C63.1629 2.40167 62.1356 2.82199 61.3762 3.57479C60.6169 4.3276 60.1877 5.35123 60.183 6.42048C60.1797 7.49133 60.6 8.52003 61.3522 9.28222C62.1044 10.0444 63.1275 10.4782 64.1983 10.4891H64.1942Z" fill="white"/>
<path d="M16.9025 37.9466C16.9353 28.4464 24.6517 20.4447 33.9055 20.3462C34.351 20.3462 34.9093 20.457 35.2111 20.7362C35.4656 20.9743 35.6217 21.6579 35.4636 21.9186C35.1682 22.3383 34.7306 22.6366 34.2319 22.7582C32.6739 23.0969 31.0296 23.1359 29.5249 23.6204C22.5968 25.8456 18.3579 32.7901 19.3145 40.1451C20.2259 47.1656 26.2939 52.745 33.4519 53.1597C33.7413 53.1761 34.0308 53.1905 34.3181 53.2131C35.1064 53.2747 35.6217 53.6749 35.5827 54.4878C35.5437 55.3007 35.0181 55.6559 34.2155 55.6497C31.9279 55.6267 29.6686 55.1422 27.5728 54.2251C24.3945 52.8562 21.6886 50.5834 19.7915 47.6892C17.8945 44.795 16.8898 41.4071 16.9025 37.9466Z" fill="white"/>
</svg>
