<svg width="80" height="80" viewBox="0 0 80 80" fill="none" xmlns="http://www.w3.org/2000/svg">
<g clip-path="url(#clip0_782_1031)">
<path d="M40.0113 0C41.4728 0.20885 42.9553 0.327895 44.396 0.62655C57.2494 3.17034 66.4573 10.4425 72.0509 22.2425C74.45 27.3092 75.4439 32.7122 75.3478 38.324C75.3478 38.5558 75.3478 38.7876 75.3478 39.0842C76.1183 39.197 76.8574 39.3139 77.5965 39.41C79.2961 39.6335 79.9893 40.3958 79.9914 42.0854C79.9914 46.4107 80.0123 50.7359 79.9914 55.0591C79.958 60.9633 78.1436 66.2577 74.4667 70.8941C73.7464 71.7985 72.6585 71.7463 72.289 70.8022C72.0509 70.1966 72.3767 69.758 72.7233 69.3173C74.6421 66.8988 76.0911 64.2193 76.7927 61.2181C77.2609 59.3012 77.5358 57.3421 77.6133 55.3703C77.7344 51.0492 77.6529 46.7218 77.6508 42.3986C77.6508 42.219 77.63 42.0415 77.6153 41.8264C75.9742 41.5632 74.3519 41.3586 72.7525 41.0369C68.5477 40.1955 64.6138 38.3345 61.2959 35.6173C60.6152 35.0638 60.1663 35.0805 59.4961 35.6173C55.1677 39.1322 50.1608 40.9952 44.6507 41.5841C44.1851 41.6343 43.7236 41.7157 43.1495 41.793V42.6284C43.1495 46.7177 43.0764 50.809 43.1662 54.8983C43.375 64.8103 48.0123 71.8862 56.9884 76.1091C57.5981 76.3973 58.2683 76.5811 58.8384 76.9299C59.9304 77.5961 60.9013 77.452 62.0329 76.9299C64.4654 75.7979 66.9125 74.7203 69.0338 73.0307C69.6602 72.5357 70.343 72.6464 70.7543 73.2082C70.8515 73.3329 70.9212 73.4767 70.9587 73.6303C70.9963 73.7838 71.001 73.9436 70.9724 74.0991C70.9438 74.2545 70.8826 74.4022 70.7928 74.5323C70.703 74.6624 70.5867 74.772 70.4516 74.8539C68.8459 75.8982 67.2319 76.9612 65.5449 77.8718C64.1313 78.6362 62.6217 79.2147 61.1268 79.8329C60.7906 79.9729 60.3166 80.0815 60.0139 79.952C56.8819 78.6174 53.6707 77.4291 50.9313 75.328C50.8198 75.2604 50.7161 75.1805 50.6222 75.0899C49.5407 73.7951 48.3255 73.816 46.722 74.2149C41.9372 75.4085 36.9643 75.6476 32.0872 74.9186C27.2101 74.1896 22.5243 72.5067 18.2975 69.9661C14.0707 67.4255 10.3856 64.0769 7.45279 60.1115C4.51994 56.1461 2.39677 51.6417 1.20453 46.8555C0.661658 44.6981 0.498797 42.4446 0.160548 40.235C0.110437 39.905 0.0645025 39.5729 0.0164795 39.2408V36.1081C0.0603266 35.8052 0.104174 35.5003 0.152197 35.1975C0.505061 32.9398 0.830782 30.6738 1.22749 28.4245C1.40079 27.4429 1.97081 27.044 2.70159 27.2027C3.43237 27.3614 3.70381 27.988 3.48875 28.9487C3.41149 29.2912 3.35721 29.6379 3.27995 30.0598C4.55152 29.6671 5.70616 29.2787 6.87959 28.955C8.05302 28.6313 9.25986 28.3932 10.4291 28.0548C10.6379 27.9922 10.8697 27.6497 10.924 27.4011C11.2706 25.7721 11.5253 24.1243 11.9032 22.5036C12.2874 20.8453 12.7801 19.2121 13.2771 17.3701C11.638 18.2911 10.1451 19.1327 8.65226 19.964C7.09047 20.8286 5.79176 21.8937 5.24263 23.7233C5.20509 23.8916 5.12954 24.049 5.02177 24.1836C4.914 24.3181 4.77687 24.4262 4.62089 24.4996C4.4649 24.573 4.2942 24.6097 4.12185 24.6069C3.9495 24.6041 3.78008 24.5619 3.62655 24.4835C2.98764 24.1911 2.79137 23.5395 3.14424 22.7479C8.67314 10.6514 17.9562 3.24135 31.0059 0.62655C32.4299 0.340426 33.8831 0.20885 35.3217 0H40.0113ZM28.1642 47.3233L40.8026 47.5844V42.2566C40.8026 40.306 41.429 39.6293 43.4 39.3808C44.7781 39.2053 46.1519 38.9631 47.6031 38.7542C47.5112 35.1557 47.4214 31.6763 47.3316 28.1279C40.9477 27.7165 34.5439 27.7165 28.16 28.1279C27.7369 34.5194 27.7383 40.932 28.1642 47.3233ZM25.6315 28.318C25.5315 28.3096 25.4309 28.3096 25.3308 28.318C21.3637 28.8338 17.3966 29.3622 13.4295 29.8656C12.9221 29.9303 12.8908 30.2561 12.8511 30.6299C12.3709 35.3203 12.3709 40.0474 12.8511 44.7378C12.8992 45.2307 13.0599 45.4479 13.5945 45.521C15.9121 45.8384 18.2172 46.2394 20.5369 46.5464C22.2532 46.7741 23.9841 46.9056 25.644 47.0727L25.6315 28.318ZM28.3166 25.6029H47.0372C47.0517 25.3943 47.0517 25.185 47.0372 24.9764C46.5445 21.1878 46.0371 17.4014 45.559 13.6108C45.488 13.0406 45.2708 12.8568 44.6883 12.7983C40.0521 12.3336 35.3811 12.3336 30.7449 12.7983C30.1686 12.8568 29.9327 13.0364 29.8534 13.6003C29.5193 15.9958 29.1226 18.3809 28.8094 20.7764C28.5881 22.3908 28.4711 24.0178 28.3166 25.6008V25.6029ZM42.0595 62.9056C40.4998 58.4864 40.8464 54.1757 40.7963 49.9298L28.1642 49.6833C28.7488 53.8311 29.3126 57.8974 29.9181 61.9554C29.9729 62.093 30.0609 62.2149 30.1742 62.3104C30.2875 62.4058 30.4225 62.4718 30.5674 62.5025C32.9268 62.6675 35.2883 62.8054 37.6519 62.8952C39.0445 62.9495 40.4435 62.9056 42.0595 62.9056ZM13.2144 27.3886L25.8445 25.8097C26.3637 21.6327 26.8829 17.4661 27.4021 13.31C27.3526 13.2954 27.3012 13.2884 27.2497 13.2891C23.626 13.8423 20.0713 14.7784 16.645 16.0815C16.3791 16.2137 16.1754 16.4445 16.077 16.7247C15.5363 18.3245 14.9746 19.9201 14.5445 21.5512C14.035 23.4747 13.6529 25.4317 13.2144 27.3886ZM13.3439 47.9749C13.3254 48.0128 13.3147 48.054 13.3126 48.0961C13.8757 51.7195 14.8119 55.2749 16.1063 58.7057C16.1737 58.851 16.2697 58.9813 16.3884 59.0889C16.5071 59.1966 16.6462 59.2793 16.7974 59.3322C19.4345 60.1133 22.0778 60.8756 24.7316 61.5982C25.6169 61.8384 26.5398 61.947 27.4063 62.1078C26.8759 57.8285 26.3623 53.6598 25.8466 49.5476L13.3439 47.9749ZM62.0475 27.4095C62.0583 27.2663 62.0583 27.1225 62.0475 26.9792C61.4789 23.433 60.5513 19.9538 59.2789 16.5952C59.2065 16.4524 59.1062 16.3256 58.9839 16.2223C58.8616 16.119 58.7198 16.0412 58.5669 15.9937C55.6967 15.1737 52.8188 14.3772 49.9332 13.6045C49.3068 13.4332 48.6366 13.3727 47.9518 13.2536C47.9643 13.4938 47.9622 13.5982 47.9747 13.7006C48.457 17.5977 48.9456 21.4969 49.4133 25.3962C49.4676 25.8389 49.6722 25.9308 50.0669 25.9621C51.4679 26.0728 52.871 26.1877 54.2636 26.3631C56.836 26.6848 59.4084 27.0523 62.0475 27.4095ZM44.9931 10.2733C44.2331 7.87573 43.4668 5.43219 42.663 2.99909C42.6087 2.82992 42.2913 2.67119 42.0783 2.64195C39.1645 2.23469 36.2082 2.23469 33.2943 2.64195C33.098 2.6691 32.8078 2.80486 32.7577 2.95523C31.9518 5.40922 31.1792 7.87156 30.4192 10.265L44.9931 10.2733ZM10.3059 30.3919C7.96324 31.1312 5.58923 31.8663 3.22775 32.6474C3.09017 32.7132 2.96916 32.8091 2.87373 32.9281C2.7783 33.047 2.7109 33.186 2.67653 33.3346C2.28087 36.2241 2.28087 39.1541 2.67653 42.0436C2.70648 42.1816 2.76732 42.311 2.85448 42.422C2.94164 42.5331 3.05284 42.6229 3.17973 42.6848C5.56418 43.4721 7.96324 44.2156 10.3059 44.9571V30.3919ZM30.392 64.9795C31.1604 67.4189 31.9037 69.8227 32.6888 72.212C32.7534 72.3366 32.845 72.4452 32.957 72.5298C33.069 72.6144 33.1985 72.6728 33.3361 72.7007C36.0776 73.108 38.8274 73.0578 41.5835 72.8135C42.3289 72.7466 42.7632 72.4856 42.9407 71.7379C43.0811 71.157 43.274 70.5901 43.5169 70.0441C44.1433 68.6365 44.2957 67.2789 43.2539 65.9841C43.1573 65.8601 43.0863 65.7181 43.0451 65.5664C42.924 65.132 42.6525 65.0547 42.2224 65.0798C40.8214 65.1633 39.4162 65.2552 38.0131 65.2322C35.5535 65.1925 33.0897 65.0735 30.392 64.9795ZM49.9395 38.0963C50.3571 37.9648 50.6974 37.8666 51.0336 37.7455C53.5741 36.8019 55.9496 35.4627 58.0721 33.7773C59.8573 32.3885 60.6945 32.378 62.5549 33.6269C62.644 33.6627 62.7373 33.6866 62.8326 33.698C62.7303 32.6286 62.5967 31.599 62.5487 30.5652C62.5236 30.0577 62.319 29.9052 61.8554 29.8426C59.0221 29.4479 56.195 29.0072 53.3596 28.6292C52.159 28.4663 50.9459 28.4015 49.6931 28.2887C49.7766 31.5739 49.856 34.7694 49.9395 38.0963ZM72.1929 30.0452C71.5872 27.2376 70.6296 24.5178 69.3429 21.9501C69.232 21.7179 69.0603 21.5202 68.8459 21.3779C66.758 20.1248 64.6512 18.8926 62.5487 17.6583C62.43 17.6095 62.307 17.5725 62.1812 17.5476C62.2125 17.7418 62.2208 17.8441 62.2438 17.9423C62.9788 21.0187 63.7409 24.0909 64.4278 27.1777C64.5698 27.8042 64.7786 28.1091 65.43 28.1885C66.0719 28.2872 66.7051 28.4359 67.3238 28.6333C68.9148 29.0824 70.4996 29.5523 72.1929 30.0452ZM57.8508 13.2139C57.789 13.013 57.7144 12.8163 57.6273 12.625C56.4894 10.6722 55.3682 8.71113 54.1843 6.78763C53.9178 6.37797 53.5345 6.05782 53.084 5.86869C51.163 5.08759 49.2171 4.36079 47.2669 3.65279C46.6229 3.45901 45.9692 3.29936 45.3084 3.17452C45.4044 3.51495 45.4671 3.73424 45.5276 3.95144C46.083 5.95223 46.6739 7.9363 47.1876 9.96006C47.3421 10.5866 47.6052 10.8226 48.2315 10.9396C50.3195 11.3322 52.404 11.7666 54.485 12.2428C55.577 12.4976 56.6544 12.8673 57.8508 13.2139ZM13.0516 57.983L13.1977 57.7282C12.7572 56.1034 12.2665 54.4911 11.8886 52.8516C11.5107 51.2121 11.2455 49.4975 10.8822 47.8141C10.8306 47.6824 10.7505 47.5636 10.6476 47.4665C10.5447 47.3694 10.4216 47.2962 10.2871 47.2523C9.41854 46.9913 8.52072 46.8346 7.64587 46.5861C6.20727 46.1872 4.77911 45.7507 3.27995 45.3121C3.27882 45.4567 3.28859 45.6013 3.30918 45.7444C3.9239 48.4023 4.85481 50.977 6.08199 53.4134C6.16642 53.5993 6.29641 53.761 6.45991 53.8833C8.65226 55.2638 10.8571 56.6213 13.0516 57.983ZM30.0663 72.1598C29.9974 71.8528 29.9661 71.6815 29.9202 71.5144C29.3397 69.4364 28.7259 67.3688 28.1997 65.2782C28.0598 64.7268 27.8301 64.5305 27.3061 64.424C24.9703 63.952 22.6332 63.4535 20.2947 62.9286C19.4198 62.7323 18.57 62.4294 17.6033 62.1433C17.6326 62.3037 17.6788 62.4605 17.7411 62.6112C18.9647 64.6997 20.184 66.7777 21.4326 68.8453C21.5921 69.0816 21.8202 69.2631 22.0862 69.3654C24.1386 70.1694 26.1973 70.9631 28.2686 71.7254C28.8591 71.9044 29.4593 72.0495 30.0663 72.1598ZM29.9849 3.25597C29.8302 3.25986 29.6759 3.27522 29.5235 3.30192C26.8875 3.91751 24.3357 4.84947 21.9233 6.07754C21.6737 6.21114 21.464 6.40861 21.3157 6.64979C20.136 8.60671 18.9772 10.5762 17.8205 12.5477C17.7409 12.7174 17.678 12.8943 17.6326 13.0761C17.7161 13.1179 17.7411 13.145 17.7599 13.1408C21.0443 12.3765 24.3307 11.6162 27.613 10.8331C27.7159 10.8041 27.8112 10.753 27.8924 10.6834C27.9735 10.6138 28.0385 10.5273 28.0828 10.43C28.7405 8.13262 29.371 5.83527 30.0016 3.52539C30.0091 3.43525 30.0035 3.3445 29.9849 3.25597ZM73.1095 38.6936C72.978 36.7764 72.8673 34.9928 72.7212 33.2134C72.7041 33.1054 72.6622 33.0027 72.5988 32.9136C72.5354 32.8245 72.4522 32.7512 72.3558 32.6996C69.9254 31.9039 67.4846 31.1375 64.9415 30.3334C65.0458 32.1128 65.1273 33.6645 65.2379 35.2121C65.25 35.3105 65.2824 35.4054 65.333 35.4906C65.3837 35.5758 65.4516 35.6495 65.5323 35.7071C67.8685 37.1291 70.4315 38.1393 73.1095 38.6936ZM16.764 9.32933C14.9683 10.242 9.91339 15.2648 9.45612 16.6913C11.0471 15.9603 12.6465 15.2293 14.2375 14.4879C14.3728 14.4139 14.4804 14.2982 14.5445 14.1579C15.2669 12.5895 15.9872 11.0168 16.764 9.32933ZM9.39557 58.6012C10.2308 60.3577 15.0331 65.1612 16.7681 65.9736C16.1543 64.6829 15.5008 63.4841 15.0122 62.2143C14.8715 61.7921 14.6356 61.4079 14.3228 61.0914C14.01 60.7749 13.6286 60.5346 13.2082 60.389C11.9199 59.8919 10.6964 59.2236 9.39557 58.6012ZM66.046 16.731C65.121 14.9182 60.3584 10.1606 58.6442 9.34813C59.3917 10.9646 60.1329 12.5853 60.8887 14.2018C60.9624 14.3366 61.0773 14.4442 61.2165 14.5088C62.8284 15.2565 64.4466 15.9958 66.046 16.731ZM45.2687 72.1765L47.0393 71.7588L45.8784 70.3574L45.2687 72.1765Z" fill="white"/>
<path d="M60.3419 70.136C52.8962 70.0587 46.908 64.4114 46.3087 56.8678C45.7513 49.8692 50.9022 43.2925 58.0013 42.1C62.2357 41.3836 66.0524 42.4362 69.4036 45.1325C69.6137 45.2865 69.8038 45.4661 69.9694 45.6671C70.1435 45.8668 70.2394 46.1228 70.2394 46.3877C70.2394 46.6526 70.1435 46.9085 69.9694 47.1082C69.807 47.3321 69.565 47.4852 69.2931 47.5361C69.0213 47.587 68.7403 47.5317 68.5079 47.3818C68.2699 47.2244 68.0432 47.0506 67.8293 46.8618C63.9269 43.9086 59.6863 43.3113 55.3016 45.4604C50.9169 47.6094 48.6097 51.3604 48.6493 56.2851C48.6953 62.4796 53.7293 67.4878 60.0036 67.7509C66.1193 68.0057 71.4665 63.34 72.0908 57.227C72.3066 55.1986 71.9892 53.149 71.17 51.281C71.1074 51.1369 71.0364 50.997 70.9884 50.8487C70.7796 50.1846 71.0009 49.5956 71.5646 49.3283C72.1702 49.0505 72.807 49.2698 73.1285 49.9339C74.1667 52.0216 74.6349 54.3466 74.4857 56.6735C74.0096 63.6199 69.2867 68.8119 62.4403 69.9564C61.7471 70.0713 61.0372 70.0775 60.3419 70.136Z" fill="white"/>
<path d="M58.4106 59.1987L61.9601 54.5184C62.9693 53.1901 63.9736 51.8646 64.973 50.5419C65.5472 49.7859 66.2508 49.6125 66.8313 50.072C67.4117 50.5315 67.4034 51.2061 66.8501 51.9391C64.4837 55.076 62.1125 58.2088 59.7364 61.3374C59.0599 62.2271 58.5024 62.2897 57.6338 61.6047C56.8989 61.0241 56.1723 60.4456 55.4394 59.8483C54.8234 59.3387 54.7295 58.6808 55.1575 58.1336C55.5856 57.5864 56.2349 57.5467 56.8884 58.0167C57.1432 58.1984 57.377 58.4072 57.6213 58.5993C57.8656 58.7915 58.1141 58.9711 58.4106 59.1987Z" fill="white"/>
</g>
<defs>
<clipPath id="clip0_782_1031">
<rect width="80" height="80" fill="white"/>
</clipPath>
</defs>
</svg>
