<svg width="118" height="74" viewBox="0 0 118 74" fill="none" xmlns="http://www.w3.org/2000/svg">
<path d="M29.6017 67.7494C23.574 67.2143 18.2338 65.8395 13.532 62.674C3.47768 55.9069 -0.741287 46.1718 0.10578 34.2634C0.780979 24.7218 4.90992 16.7774 13.0123 11.525C33.2642 -1.64717 57.3995 10.7017 60.7427 32.4193C61.2133 35.4653 61.1519 38.5937 61.6389 41.6357C63.8159 55.2894 76.1209 64.5881 89.8294 63.2874C105.907 61.7644 115 48.4234 113.76 33.9711C112.758 22.252 102.793 12.0477 91.143 10.6482C90.4187 10.5618 89.6944 10.4877 88.9742 10.4095L88.7573 10.7223C89.453 11.3686 90.1773 11.986 90.8361 12.6693C91.855 13.7272 91.9041 14.9374 91.0284 15.843C90.1527 16.7486 88.9374 16.728 87.8857 15.6907C85.9378 13.7697 84.0118 11.8337 82.1076 9.88258C81.0068 8.74648 81.0355 7.67212 82.1649 6.51545C84.0391 4.59451 85.9337 2.69004 87.8489 0.80203C88.8678 -0.206463 90.1404 -0.255858 90.9998 0.608564C91.8591 1.47299 91.8509 2.69964 90.832 3.77399C90.1404 4.50258 89.3916 5.17353 88.5977 5.93505C91.2903 6.48663 93.8438 6.83652 96.295 7.53629C112.357 12.1342 119.145 26.8829 117.844 40.0097C116.101 57.5987 101.967 68.6056 84.9271 67.6424C71.6318 66.8891 59.5928 55.9027 57.4281 42.5907C56.9493 39.6393 56.9411 36.6138 56.6097 33.6336C55.382 22.0133 45.7492 12.2289 34.2667 10.6317C22.9561 9.0552 7.58207 14.8839 4.558 32.2546C2.21322 45.7314 9.73861 60.5624 26.8314 63.1598C27.6003 63.3099 28.3908 63.3099 29.1598 63.1598C28.4682 62.5053 27.748 61.8755 27.0933 61.184C26.0866 60.1219 26.0661 58.9076 26.9787 58.0185C27.8912 57.1294 29.0247 57.1706 30.0314 58.1585C32.0147 60.0959 33.9721 62.0635 35.9036 64.0612C36.9021 65.0944 36.9021 66.2017 35.9036 67.2349C33.9475 69.2629 31.9601 71.262 29.9414 73.2323C28.9797 74.1709 27.7153 74.1379 26.8887 73.2694C26.062 72.4009 26.0702 71.2113 27.0319 70.2028C27.7603 69.4289 28.5541 68.7415 29.6017 67.7494Z" fill="white"/>
<path d="M43.6744 23.2521C43.6349 23.6865 43.5037 24.1075 43.2898 24.4869C42.4714 25.5531 42.8806 26.2775 43.5885 27.2243C44.4642 28.418 45.0125 29.8464 45.786 31.1183C45.9077 31.3168 46.0685 31.4883 46.2585 31.622C46.4485 31.7558 46.6637 31.8491 46.8908 31.8963C49.6735 32.1268 50.8438 33.3164 50.8765 36.0867C50.8765 36.5724 50.8765 37.0581 50.8765 37.5438C50.8765 40.6352 49.8372 41.7136 46.7844 41.9935C46.3696 42.106 46.0154 42.3781 45.7982 42.7509C44.8611 44.2822 43.9609 45.8423 43.1097 47.427C43.0083 47.6144 42.9466 47.8208 42.9283 48.0333C42.91 48.2458 42.9355 48.4598 43.0033 48.6619C44.231 51.2923 43.7767 52.9429 41.2887 54.4248C40.7977 54.717 40.3025 55.001 39.8033 55.2809C37.5404 56.5158 35.8012 56.1042 34.4385 53.8896C34.0621 53.2722 33.6979 53.1281 32.9695 53.1734C31.2699 53.2701 29.5662 53.2701 27.8666 53.1734C27.22 53.1405 26.8599 53.2146 26.4916 53.8114C25.0389 56.1659 23.3325 56.5611 20.9264 55.1863C20.2757 54.8158 19.621 54.4577 18.999 54.0502C17.2517 52.9017 16.6788 51.0247 17.7018 49.2259C18.2379 48.2791 18.0701 47.7399 17.4767 46.9166C16.6156 45.6456 15.864 44.303 15.2302 42.9032C14.9314 42.2858 14.6982 41.9524 13.9248 41.9359C11.3058 41.8865 10.0086 40.4952 9.98816 37.869C9.98816 37.161 9.98816 36.4571 9.98816 35.7491C10.0454 33.4563 11.4204 31.9539 13.6711 31.9662C14.6614 31.9662 14.9519 31.5546 15.3079 30.7314C16.0083 29.3138 16.8097 27.9492 17.7059 26.648C18.0946 26.0676 18.2501 25.693 17.8859 25.0015C16.6297 22.6593 17.1575 20.9058 19.4368 19.5433C20.0752 19.1605 20.7136 18.7612 21.3806 18.4319C23.4921 17.3863 25.1126 17.7897 26.328 19.8067C26.8313 20.63 27.3387 20.7246 28.2308 20.63C29.7996 20.5243 31.3741 20.5381 32.9408 20.6711C33.6365 20.7164 34.0416 20.6341 34.4385 19.9919C35.8503 17.7074 37.5608 17.3122 39.9097 18.6418C40.634 19.0534 41.3624 19.4651 42.058 19.922C43.1343 20.6711 43.6908 21.7537 43.6744 23.2521ZM37.9455 22.47C37.4381 23.2438 37.0493 23.9354 36.5705 24.5528C36.3323 24.9296 35.9728 25.2128 35.552 25.3552C35.1312 25.4975 34.6746 25.4904 34.2585 25.3349C31.778 24.5186 29.105 24.5085 26.6185 25.3061C25.4891 25.656 24.6461 25.2526 24.0405 24.277C23.6804 23.6925 23.3407 23.0956 22.9438 22.4247L21.7162 23.1903C21.974 23.6596 22.1867 24.0424 22.3954 24.4252C23.398 26.2816 23.3325 26.7838 21.8798 28.2492C20.2749 29.838 19.1414 31.8448 18.6061 34.045C18.1969 35.6462 17.6691 36.0784 16.0404 36.1443C15.4389 36.169 14.8373 36.1443 14.1457 36.1443L14.2317 37.692C14.9764 37.692 15.6312 37.692 16.2777 37.692C17.4644 37.7373 18.2747 38.2848 18.5366 39.5073C19.0564 41.9887 20.346 44.2401 22.2195 45.937C23.1034 46.7602 23.1893 47.6617 22.7146 48.6866C22.4036 49.3494 22.0558 49.9915 21.6834 50.7448L22.9111 51.3705L23.3776 50.5966C24.6952 48.345 24.9939 48.2215 27.4697 48.7772C29.6571 49.3147 31.947 49.2608 34.1071 48.6208C35.3347 48.2462 36.1531 48.6496 36.7874 49.6581C37.1516 50.2344 37.5117 50.8148 37.9086 51.4528L39.0749 50.6583C38.8703 50.2879 38.723 50.0162 38.5716 49.7486C37.3439 47.6123 37.4994 47.2418 39.0994 45.3648C40.0856 44.2122 41.1455 42.895 41.5547 41.5078C42.3199 38.8816 43.2816 36.9305 46.5184 37.8032V36.2472C46.1092 36.2225 45.7614 36.1813 45.4177 36.1772C42.9624 36.1402 42.8724 35.9179 42.0171 33.5839C41.4326 31.9291 40.5945 30.3764 39.5332 28.9819C37.4872 26.3434 37.3685 26.4216 38.9971 23.4002C39.0299 23.3385 38.9971 23.2479 38.9971 23.108L37.9455 22.47Z" fill="white"/>
<path d="M92.3625 26.1216C92.0719 27.2989 91.7404 28.6696 91.4008 30.0362C89.9058 36.0735 88.4054 42.0997 86.8995 48.115C86.5353 49.5722 85.5655 50.2843 84.3787 50.0414C84.0841 49.9903 83.8038 49.8763 83.5567 49.707C83.3096 49.5377 83.1015 49.317 82.9463 49.06C82.7912 48.8029 82.6927 48.5153 82.6574 48.2167C82.6222 47.918 82.651 47.6153 82.7419 47.3288C84.5342 40.0594 86.3484 32.7969 88.1844 25.5412C88.5118 24.2405 89.4448 23.6724 90.6397 23.8947C91.6218 24.047 92.3379 24.8991 92.3625 26.1216Z" fill="white"/>
<path d="M71.4805 36.9802C73.371 38.8613 75.1879 40.5902 76.8943 42.4219C77.4359 42.9736 77.7576 43.7059 77.7987 44.4801C77.7399 44.8333 77.5977 45.1671 77.3841 45.4536C77.1705 45.7401 76.8917 45.9709 76.5711 46.1266C75.904 46.3283 74.8074 46.1842 74.3204 45.715C71.8119 43.3769 69.4099 40.9154 67.0323 38.4497C66.0912 37.4783 66.1034 36.3586 67.0323 35.379C69.3894 32.9476 71.7778 30.5451 74.1976 28.1713C75.1961 27.1875 76.3665 27.1917 77.2463 28.052C78.1261 28.9123 78.1383 30.1554 77.1194 31.2174C75.6258 32.7692 74.0871 34.2799 72.569 35.8112C72.2539 36.1569 71.9306 36.5068 71.4805 36.9802Z" fill="white"/>
<path d="M103.55 36.8817L98.6398 31.9956C98.2871 31.6641 97.9524 31.3137 97.6372 30.946C97.287 30.5431 97.1019 30.0215 97.1194 29.4866C97.1369 28.9517 97.3556 28.4434 97.7313 28.0646C97.9121 27.866 98.131 27.7063 98.3747 27.595C98.6184 27.4837 98.882 27.4232 99.1496 27.417C99.4172 27.4109 99.6833 27.4592 99.9318 27.5592C100.18 27.6592 100.406 27.8087 100.596 27.9987C103.144 30.4877 105.655 33.0206 108.129 35.5974C108.308 35.7692 108.45 35.9755 108.547 36.204C108.644 36.4325 108.694 36.6785 108.694 36.9269C108.694 37.1754 108.644 37.4214 108.547 37.6499C108.45 37.8784 108.308 38.0847 108.129 38.2565C105.674 40.8333 103.163 43.3662 100.596 45.8552C100.407 46.0471 100.182 46.1983 99.9334 46.2996C99.6849 46.401 99.4185 46.4502 99.1504 46.4445C98.8823 46.4387 98.6181 46.378 98.3742 46.266C98.1302 46.1541 97.9114 45.9933 97.7313 45.7934C97.5349 45.5989 97.3788 45.3669 97.2723 45.1111C97.1658 44.8553 97.111 44.5807 97.111 44.3033C97.111 44.026 97.1658 43.7514 97.2723 43.4956C97.3788 43.2398 97.5349 43.0078 97.7313 42.8132C99.2741 41.1667 100.882 39.6149 102.462 38.0136C102.806 37.6802 103.121 37.3303 103.55 36.8817Z" fill="white"/>
<path d="M39.5701 36.9224C39.5532 38.736 39.0035 40.504 37.9901 42.0041C36.9768 43.5042 35.5451 44.6694 33.8752 45.3532C32.2052 46.0369 30.3715 46.2086 28.6048 45.8468C26.838 45.4849 25.2171 44.6056 23.9459 43.3195C22.6747 42.0333 21.8099 40.3978 21.4604 38.6185C21.1109 36.8393 21.2922 34.9958 21.9816 33.3199C22.6709 31.6441 23.8376 30.2107 25.3347 29.2001C26.8318 28.1894 28.5926 27.6467 30.3956 27.6401C31.6042 27.6428 32.8003 27.8852 33.9157 28.3532C35.031 28.8213 36.0437 29.506 36.8958 30.3681C37.7479 31.2302 38.4227 32.2528 38.8816 33.3775C39.3405 34.5021 39.5744 35.7067 39.5701 36.9224ZM25.4933 36.8853C25.4957 37.8726 25.7896 38.837 26.3376 39.656C26.8857 40.4751 27.6631 41.112 28.5715 41.4861C29.4798 41.8601 30.4781 41.9544 31.4398 41.7569C32.4015 41.5595 33.2832 41.0792 33.9732 40.3771C34.6632 39.6749 35.1303 38.7825 35.3154 37.8129C35.5005 36.8433 35.3952 35.8403 35.0129 34.931C34.6306 34.0216 33.9884 33.247 33.1678 32.7053C32.3473 32.1636 31.3853 31.8792 30.4038 31.8882C29.0972 31.9065 27.8502 32.4407 26.9315 33.3755C26.0129 34.3103 25.4964 35.5709 25.4933 36.8853Z" fill="white"/>
</svg>
