<svg width="77" height="77" viewBox="0 0 77 77" fill="none" xmlns="http://www.w3.org/2000/svg">
<path d="M76.7481 7.344C76.3377 7.79847 75.9133 8.2249 75.2186 7.94462C74.5239 7.66433 74.4778 7.08174 74.4958 6.45109C74.5119 5.90254 74.5099 5.35198 74.4958 4.80342C74.4598 3.54614 73.661 2.70528 72.4077 2.60117C72.2075 2.58516 72.0073 2.59116 71.8071 2.59116H53.9749C52.077 2.59116 51.2902 3.37796 51.2882 5.2759C51.2882 8.09877 51.2882 10.921 51.2882 13.7425C51.2882 15.4603 51.9609 16.189 53.6726 16.3452C55.3083 16.5013 56.4595 17.7686 56.4855 19.4844C56.5075 20.8197 56.4855 22.1551 56.6397 23.5305L58.6597 20.1631C59.0841 19.4583 59.5246 18.7616 59.931 18.0449C60.6017 16.8697 61.6007 16.3252 62.9501 16.3312C65.9531 16.3452 68.9442 16.3312 71.9412 16.3312C73.693 16.3312 74.4938 15.5303 74.4978 13.7665C74.4978 13.3661 74.5159 12.9657 74.4978 12.5653C74.4658 11.9167 74.5899 11.3361 75.2766 11.1118C75.9633 10.8876 76.4198 11.262 76.7501 11.8326V14.9858C76.4779 15.5684 76.2777 16.201 75.9193 16.7155C75.0504 17.9648 73.8051 18.5774 72.2756 18.5794C69.2325 18.5794 66.1874 18.5955 63.1423 18.5674C62.8594 18.5419 62.5755 18.6029 62.3281 18.7423C62.0807 18.8817 61.8815 19.093 61.7569 19.3482C60.4455 21.5865 59.1062 23.8068 57.7528 26.021C57.0981 27.1001 55.9369 27.3844 55.01 26.7237C54.7539 26.5431 54.5482 26.3001 54.4123 26.0177C54.2764 25.7353 54.2147 25.4229 54.2332 25.1101C54.2432 23.3383 54.2332 21.5665 54.2332 19.7947C54.2332 18.8517 54.033 18.6475 53.1361 18.5734C50.8518 18.3893 49.098 16.6074 49.0499 14.2791C48.9965 11.0611 48.9965 7.84251 49.0499 4.62323C49.086 2.51909 50.5014 0.921462 52.5715 0.436969C52.6895 0.401159 52.8041 0.35493 52.9139 0.298828H72.8502C73.8412 0.599134 74.8822 0.865405 75.5289 1.7403C76.0154 2.39897 76.3477 3.17376 76.7481 3.89649V7.344Z" fill="white"/>
<path d="M16.745 31.4722C16.3225 31.4722 15.9001 31.4722 15.4797 31.4722C13.3595 31.4462 11.8039 29.9907 11.7339 27.8926C11.6858 26.4451 11.6978 24.9936 11.7339 23.5462C11.7659 22.2969 12.3345 21.3119 13.3355 20.5551C13.4574 20.4537 13.5581 20.3291 13.6316 20.1886C13.7051 20.048 13.7501 19.8943 13.7639 19.7363C13.838 17.7342 13.6678 15.7202 13.9341 13.7562C14.6568 8.40675 19.0593 4.6269 24.4708 4.56884C28.3928 4.5268 32.3148 4.54281 36.2368 4.56884C38.9996 4.58686 40.9056 6.30861 41.2259 9.0454C41.276 9.47183 41.4461 9.56393 41.8265 9.59596C44.3951 9.79616 46.231 11.632 46.3551 14.2167C46.4452 16.0185 46.3972 17.8103 46.3852 19.6102C46.3627 19.8152 46.3992 20.0225 46.4903 20.2076C46.5814 20.3927 46.7234 20.548 46.8997 20.6552C47.9367 21.3659 48.4252 22.401 48.4232 23.6583C48.4232 26.4311 48.4393 29.2019 48.4232 31.9748C48.4012 34.4893 46.5053 36.5534 43.9947 36.4914C42.3671 36.4513 41.294 36.8637 40.3911 38.2672C39.8085 39.1761 38.7514 39.7747 37.9386 40.5455C37.7003 40.7628 37.5423 41.0541 37.4901 41.3723C37.432 42.2172 37.4581 43.0701 37.4741 43.9189C37.4961 45.1982 38.0306 45.7208 39.2759 45.7208C42.9223 45.7208 46.5693 45.7208 50.2171 45.7208C53.5244 45.7208 55.4564 47.8209 55.2222 51.1263C55.1541 52.0712 55.094 53.0202 55.08 53.9692C55.0859 54.2565 55.178 54.5355 55.3443 54.77C57.9497 58.3571 59.3235 62.6915 59.2603 67.1246C59.2603 67.8493 59.2603 68.574 59.2603 69.2988C59.2603 70.2397 59.3283 71.1006 59.8028 72.0115C60.956 74.2138 59.3404 76.7784 56.7998 76.9886C56.5996 77.0046 56.3994 76.9986 56.1992 76.9986H3.96795C1.89384 76.9966 0.494414 75.9756 0.0839963 74.1737C-0.132224 73.2228 0.0839963 72.3559 0.560482 71.515C0.755052 71.1814 0.866306 70.8057 0.884812 70.4199C0.926855 67.6171 0.768694 64.8282 1.46741 62.0754C2.10914 59.5302 3.20148 57.1204 4.69269 54.9602C4.93745 54.5736 5.06921 54.1263 5.07308 53.6689C5.08309 52.6218 4.95696 51.5747 4.93694 50.5257C4.88489 47.7468 6.83687 45.7468 9.65575 45.7208C13.4596 45.6967 17.2495 45.7208 21.0473 45.7208C22.0103 45.7208 22.5589 45.3204 22.649 44.3494C22.7371 43.2823 22.709 42.2052 22.693 41.1321C22.6777 41.0263 22.6408 40.9249 22.5847 40.834C22.5286 40.7431 22.4544 40.6646 22.3667 40.6035C19.2455 38.4654 17.4457 35.5084 16.8551 31.7946C16.8245 31.6852 16.7877 31.5775 16.745 31.4722ZM5.34736 58.5578C3.26123 62.0634 2.96493 65.9073 3.19116 69.8373H5.81784C5.81784 68.7202 5.81784 67.6751 5.81784 66.6341C5.80889 66.4959 5.82798 66.3574 5.87394 66.2268C5.9199 66.0962 5.9918 65.9762 6.0853 65.8741C6.17881 65.772 6.29199 65.6898 6.41805 65.6326C6.54411 65.5753 6.68044 65.5442 6.81886 65.541C7.08417 65.5012 7.35445 65.5679 7.57081 65.7265C7.78717 65.8852 7.9321 66.1228 7.97403 66.3878C8.03569 66.7052 8.06918 67.0275 8.07414 67.3508C8.12819 68.1876 8.17424 69.0265 8.22429 69.8573H25.8022C25.787 69.6415 25.7426 69.4286 25.6701 69.2247C25.0955 68.1876 24.617 67.0685 23.8882 66.1516C20.9132 62.4158 21.7641 56.9062 25.7742 54.3516C26.4308 53.9331 27.0915 53.7509 27.8122 54.1353C28.533 54.5197 28.7112 55.1564 28.7072 55.9031C28.7072 57.0263 28.7072 58.1514 28.7072 59.2746C28.7252 61.4608 28.4409 61.1004 30.6451 61.1565C31.2778 61.1725 31.476 60.9162 31.466 60.3136C31.4406 58.7654 31.4406 57.2171 31.466 55.6689C31.488 54.2675 32.8173 53.5027 34.0686 54.1694C34.3092 54.3019 34.5406 54.4504 34.7613 54.6138C38.5652 57.3786 39.1658 62.67 36.0987 66.3117C35.2278 67.3408 34.5751 68.4559 34.3489 69.8614H51.9468C51.9668 69.533 51.9889 69.2407 52.0049 68.9464C52.3232 63.0144 52.6275 57.0803 52.9619 51.1483C53.09 48.88 52.2812 47.9831 49.9928 47.9831H10.2103C9.91123 47.973 9.61183 47.9791 9.3134 48.0011C8.72059 48.0422 8.16693 48.312 7.76916 48.7535C7.37139 49.1949 7.1606 49.7736 7.18123 50.3675C7.18123 51.0402 7.23328 51.7149 7.27132 52.3876C7.43148 55.3285 7.60366 58.2695 7.75581 61.2125C7.79585 61.9853 7.38343 62.4778 6.72876 62.5279C6.02405 62.5819 5.57759 62.1495 5.52754 61.3267C5.45347 60.4017 5.40542 59.4808 5.34736 58.5578ZM41.2419 25.7945C39.0877 25.298 38.6393 24.7214 38.6393 22.5572C38.6393 21.3339 38.6653 20.1087 38.6393 18.8854C38.5972 17.1276 37.426 16.0005 35.6662 16.0345C35.1706 16.0723 34.679 16.152 34.1967 16.2728C33.3399 16.4369 32.493 16.6632 31.6301 16.7753C29.514 17.0516 27.4659 16.6772 25.4238 16.1406C23.0814 15.528 21.4197 17.0435 21.5459 19.1597C21.6219 20.5031 21.5799 21.8564 21.5459 23.2038C21.5118 24.5512 20.719 25.4561 19.4037 25.6743C19.2615 25.6964 19.1214 25.7384 18.8491 25.8045C18.9392 27.8065 18.8211 29.8286 19.1574 31.7746C20.2626 38.1811 26.8653 42.1852 33.1176 40.3733C34.5428 39.9801 35.8722 39.2987 37.0236 38.3713C36.3249 38.3232 35.7764 38.3212 35.2418 38.2411C34.557 38.136 33.9291 37.7992 33.4627 37.2869C32.9963 36.7746 32.7197 36.1179 32.6792 35.4263C32.5951 33.9768 33.5261 32.4593 34.9355 32.3131C36.8795 32.1129 38.9135 31.7125 40.7774 32.9738C41.5262 30.6074 41.1098 28.2009 41.2419 25.7945ZM19.3036 23.5221C19.3036 22.0166 19.3036 20.6973 19.3036 19.3779C19.2878 18.8295 19.3267 18.2809 19.4197 17.7403C20.0643 14.7572 22.9613 13.0955 26.1546 14.0065C28.7515 14.7851 31.5212 14.7754 34.1127 13.9784C35.1991 13.6454 36.363 13.6643 37.438 14.0325C39.5542 14.7312 40.8595 16.5811 40.8936 18.9515C40.9156 20.419 40.8936 21.8885 40.8936 23.4921C41.7705 23.1918 42.5392 22.9235 43.31 22.6653C43.5665 22.5964 43.7907 22.44 43.9439 22.2232C44.0971 22.0064 44.1696 21.7428 44.1489 21.4781C44.1489 19.1297 44.1809 16.7813 44.1349 14.4349C44.1048 12.8793 43.0778 11.9103 41.5202 11.8322C40.0147 11.7482 39.1438 10.9053 39.0036 9.39576C38.8555 7.7741 37.8885 6.83114 36.2709 6.82314C32.3489 6.80512 28.4249 6.76508 24.5049 6.83315C20.1024 6.90522 16.7109 9.76813 16.1684 14.1126C15.8561 16.6211 16.0523 19.1977 16.0663 21.7423C16.086 21.8992 16.1419 22.0493 16.2294 22.181C16.3169 22.3126 16.4338 22.4222 16.5708 22.5011C17.4036 22.8775 18.2805 23.1518 19.3036 23.5221ZM30.1306 74.7503H55.8268C56.051 74.7503 56.2772 74.7503 56.5015 74.7503C57.3824 74.7063 57.9169 74.1978 57.9029 73.425C57.8889 72.6522 57.3784 72.1977 56.5215 72.1657C55.9209 72.1437 55.3203 72.1657 54.7196 72.1657H4.00399C2.85882 72.1657 2.25821 72.6102 2.2522 73.447C2.2462 74.2839 2.86483 74.7523 3.98197 74.7603H30.1306V74.7503ZM26.4689 56.6739C26.1886 56.9162 26.0504 57.0183 25.9323 57.1384C24.9737 58.1398 24.4147 59.4575 24.3608 60.8428C24.307 62.2281 24.762 63.5852 25.64 64.6581C26.8232 66.0875 27.7382 67.6191 28.0605 69.4629C28.0885 69.6231 28.3168 69.8633 28.4609 69.8734C29.6481 69.9054 30.8393 69.8914 32.0446 69.8914C32.3449 67.8133 33.2858 66.1616 34.5491 64.622C35.431 63.5502 35.886 62.1906 35.8269 60.8039C35.7678 59.4172 35.1987 58.1012 34.2288 57.1084C34.0673 56.9642 33.8968 56.8305 33.7183 56.708C33.7183 58.1254 33.7423 59.4227 33.7183 60.712C33.7199 61.0648 33.6514 61.4144 33.5168 61.7406C33.3822 62.0667 33.1842 62.3629 32.9343 62.6119C32.6843 62.8609 32.3874 63.0578 32.0608 63.1912C31.7342 63.3245 31.3843 63.3917 31.0315 63.3888C30.533 63.4028 30.0305 63.3888 29.534 63.3888C27.4819 63.3888 26.4729 62.3737 26.4649 60.2996C26.4649 59.1585 26.4689 58.0173 26.4689 56.6739ZM25.0314 42.059C24.9413 43.3383 24.8572 44.5095 24.7751 45.6827H35.398C35.3119 44.4815 35.2298 43.3023 35.1457 42.0791C31.7663 43.3604 28.4289 43.3764 25.0254 42.061L25.0314 42.059ZM56.9719 69.8874C57.1902 65.9073 56.9239 62.0794 54.8197 58.5638C54.6195 62.3297 54.4193 66.0935 54.2191 69.8874H56.9719ZM43.4782 29.224C44.0187 29.224 44.4432 29.246 44.8656 29.224C45.5383 29.1799 46.0949 28.8075 46.1269 28.1589C46.207 26.5292 46.1529 24.8935 46.1529 23.4321C45.3681 23.9145 44.5613 24.397 43.7725 24.9076C43.6972 24.958 43.6331 25.0235 43.5845 25.1001C43.5359 25.1766 43.5038 25.2624 43.4902 25.352C43.4682 26.6093 43.4782 27.8746 43.4782 29.22V29.224ZM16.6789 29.224C16.6789 27.8766 16.6789 26.5873 16.6669 25.298C16.6533 25.2185 16.6231 25.1429 16.5782 25.076C16.5334 25.0091 16.4749 24.9523 16.4066 24.9096C15.6058 24.407 14.805 23.9266 14.0382 23.4561C14.0382 24.9296 13.9962 26.5652 14.0622 28.1949C14.0863 28.7955 14.6008 29.1459 15.1974 29.2119C15.6909 29.2384 16.1854 29.2384 16.6789 29.2119V29.224ZM46.1409 31.3301L43.4221 31.5303L42.8215 34.2491C45.246 34.4413 46.3091 33.4943 46.1409 31.3301ZM37.0917 36.0469C37.5642 36.0469 38.0387 36.0669 38.5091 36.0469C39.0197 36.0209 39.388 35.7526 39.382 35.2181C39.376 34.6835 39.0277 34.4172 38.4971 34.4172C37.6022 34.4172 36.7053 34.4172 35.8104 34.4172C35.2839 34.4172 34.9455 34.6895 34.9415 35.2301C34.9415 35.7366 35.2738 36.0009 35.7423 36.0309C36.1928 36.0829 36.6372 36.0549 37.0917 36.0549V36.0469Z" fill="white"/>
<path d="M62.882 13.4042H55.7668C55.4928 13.4151 55.2183 13.3977 54.9479 13.3521C54.7111 13.3137 54.4959 13.1916 54.3415 13.0078C54.1872 12.8241 54.104 12.591 54.1071 12.3511C54.0738 12.0985 54.1382 11.8427 54.287 11.6359C54.4357 11.4291 54.6578 11.2867 54.9079 11.238C55.2006 11.176 55.4999 11.1511 55.7988 11.1639C60.5169 11.1639 65.2357 11.1639 69.9552 11.1639C71.1805 11.1639 71.701 11.5082 71.691 12.3091C71.681 13.1099 71.1845 13.4102 69.9252 13.4122L62.882 13.4042Z" fill="white"/>
<path d="M65.731 8.11841C64.1594 8.11841 62.5898 8.11841 61.0202 8.11841C60.1573 8.11841 59.6448 7.66795 59.6628 6.97925C59.6808 6.29055 60.1733 5.88013 60.9982 5.87813C64.1133 5.86745 67.2292 5.86745 70.3457 5.87813C71.2186 5.87813 71.7051 6.32058 71.6891 7.0353C71.673 7.75003 71.2226 8.1144 70.3657 8.12041C68.8221 8.12642 67.2686 8.11841 65.731 8.11841Z" fill="white"/>
<path d="M55.8208 8.10691C54.6195 8.10691 54.087 7.76456 54.103 6.97375C54.119 6.18295 54.6396 5.86262 55.8688 5.86663C56.0691 5.85742 56.2697 5.86143 56.4694 5.87864C56.7573 5.90212 57.0261 6.03243 57.2228 6.24396C57.4195 6.45549 57.53 6.73295 57.5325 7.0218C57.5185 7.62242 57.07 8.05486 56.4214 8.10491C56.2212 8.12493 56.021 8.10691 55.8208 8.10691Z" fill="white"/>
</svg>
