<svg width="77" height="75" viewBox="0 0 77 75" fill="none" xmlns="http://www.w3.org/2000/svg">
<path d="M28.9161 25.7661C28.2515 25.5603 27.8565 25.7393 27.552 26.2085C27.4049 26.4497 27.2248 26.6692 27.017 26.8607C25.4533 28.2125 25.1653 29.914 25.1653 31.9324C25.2208 44.8227 25.1509 57.715 25.1221 70.6134C25.1221 70.741 25.1221 70.8706 25.1221 70.9982C25.1015 71.9076 24.6365 72.4385 23.8876 72.4385C23.1654 72.4261 22.6984 71.8953 22.6654 71.0414C22.6654 70.7842 22.6654 70.527 22.6654 70.2698C22.6956 56.5833 22.7224 42.8968 22.7457 29.2103C22.7189 28.5183 22.9641 27.8433 23.4288 27.3298C24.3279 26.301 25.2147 25.2723 26.0253 24.1839C26.5809 23.4411 27.2372 23.1963 28.1363 23.2127C30.6506 23.2553 33.1662 23.2553 35.6832 23.2127C36.1824 23.1897 36.6638 23.0209 37.0679 22.7272C39.0987 21.1984 41.0862 19.6162 43.0882 18.0525C43.2096 17.9579 43.333 17.8632 43.4483 17.7624C44.0202 17.2542 44.1169 16.5752 43.6952 16.065C43.2734 15.5547 42.6335 15.5094 42.0492 15.958C40.8147 16.89 39.5205 17.748 38.428 18.82C36.6729 20.54 34.6854 21.0194 32.2554 20.9762C24.5069 20.8322 16.7522 20.9248 9.00568 20.9207C7.37756 20.8884 5.77998 21.3653 4.43597 22.2848C3.21793 23.1284 2.54719 24.2682 2.54307 25.7825C2.51221 30.6568 2.469 35.5248 2.469 40.4032C2.469 42.5286 4.12735 44.368 6.34328 44.7486V26.3566C6.34328 26.1755 6.34328 25.9965 6.34328 25.8175C6.36591 24.8628 6.84531 24.2826 7.60041 24.2909C8.35551 24.2991 8.8061 24.8587 8.8061 25.8463C8.8061 40.8675 8.8061 55.8872 8.8061 70.9056C8.8061 71.8829 8.34317 72.4323 7.5716 72.4199C6.80004 72.4076 6.35151 71.85 6.34945 70.8706C6.34945 63.3457 6.34945 55.8214 6.34945 48.2978V47.3637C5.8433 47.2197 5.37419 47.1106 4.92154 46.9522C1.90113 45.9378 0 43.3166 0 40.1398C0 35.6215 0.0198892 31.1026 0.0596675 26.5829C0.0843575 22.3486 2.22827 19.6327 6.40294 18.7644C7.76707 18.4784 9.2032 18.5401 10.6085 18.4496C10.8862 18.4311 11.1681 18.4496 11.594 18.4496C11.3739 18.2027 11.2381 18.0381 11.0982 17.892C8.15182 14.6494 7.38437 10.9048 8.72586 6.80416C9.70729 3.80432 12.6001 2.17066 16.0485 2.30029C21.6038 2.50604 23.8938 6.67453 23.3424 11.5878C23.0461 14.2214 21.9967 16.5073 19.9166 18.3899H28.9202V17.5361C28.9202 13.7626 28.9202 9.99054 28.9202 6.21983C28.9223 2.39699 31.2884 0.012345 35.1154 0C46.7938 0 58.4756 0 70.1608 0C74.0207 0 76.4012 2.40316 76.4012 6.25275C76.4012 16.6527 76.4012 27.0527 76.4012 37.4527C76.4012 40.4258 74.5494 42.7322 71.7163 43.3022C71.2611 43.3798 70.7993 43.4122 70.3377 43.3989C58.5565 43.3989 46.7752 43.3989 34.994 43.3989C31.3728 43.3989 28.947 40.9978 28.9305 37.3869C28.9141 33.7759 28.9305 30.1979 28.9305 26.6035L28.9161 25.7661ZM31.3851 25.6817V26.4903C31.3851 30.0841 31.3851 33.6786 31.3851 37.2737C31.3851 39.6501 32.6793 40.9422 35.0413 40.9422H70.2246C72.6257 40.9422 73.9281 39.6398 73.9281 37.2284C73.9281 26.8819 73.9281 16.5341 73.9281 6.18485C73.9281 3.8002 72.6133 2.48135 70.2081 2.48135C58.5009 2.47312 46.7965 2.469 35.0948 2.469C32.6649 2.469 31.3913 3.76111 31.3913 6.1725C31.3913 9.99671 31.3913 13.8223 31.3913 17.6492C31.3913 17.8961 31.418 18.141 31.4366 18.4332C32.3748 18.4332 33.2492 18.4825 34.1113 18.4126C34.5801 18.3799 35.0318 18.223 35.4199 17.9579C37.1338 16.6658 38.8189 15.3263 40.5143 13.991C40.9383 13.6345 41.4405 13.3831 41.98 13.2573C42.5194 13.1314 43.081 13.1347 43.619 13.2668C45.0408 13.6063 45.9872 14.5136 46.3123 15.9415C46.66 17.4476 46.1888 18.7356 44.9605 19.7026C42.8207 21.3836 40.6665 23.044 38.537 24.7373C37.7639 25.3839 36.7812 25.7257 35.7738 25.6982C34.3459 25.657 32.92 25.6817 31.379 25.6817H31.3851ZM10.5735 10.2875C10.5982 12.1516 11.1064 13.8922 12.0343 15.2255C14.061 18.1472 17.4641 18.1595 19.4845 15.2255C20.5874 13.6289 20.9906 11.8265 20.9454 9.90275C20.8713 6.69099 19.1512 4.90508 15.9662 4.759C13.0713 4.63349 11.1105 6.15399 10.6743 8.90692C10.6002 9.36163 10.6044 9.82663 10.5735 10.2875Z" fill="white"/>
<path d="M31.2391 65.5605C29.0046 62.8528 29.77 59.7316 31.5312 58.0918C32.4744 57.2022 33.7114 56.6898 35.0074 56.6519C36.3033 56.614 37.5681 57.0531 38.5617 57.886C40.8106 59.7686 41.0163 62.5895 39.0679 65.6222C40.758 66.4344 42.1751 67.7214 43.1458 69.3257C44.1441 67.7101 45.5862 66.4159 47.2999 65.5975C46.1457 64.2622 45.6663 62.7602 45.9317 61.071C46.1274 59.814 46.782 58.6742 47.769 57.8716C48.7323 57.0637 49.9522 56.6261 51.2093 56.6374C52.4664 56.6487 53.6782 57.1083 54.6267 57.9333C56.82 59.8159 56.9969 62.5442 55.0752 65.6202C56.7641 66.4335 58.1802 67.7202 59.1511 69.3237C60.1458 67.7192 61.5845 66.4377 63.2929 65.6346C62.0707 64.1778 61.5913 62.5483 62.0234 60.6966C62.3049 59.4831 63.0197 58.4142 64.0336 57.6905C65.0113 56.9645 66.2108 56.6006 67.4271 56.661C68.6435 56.7215 69.801 57.2024 70.702 58.0218C72.8253 59.9229 72.9652 62.3652 71.1896 65.4844C72.1957 66.3341 73.2594 67.0954 74.1544 68.0192C75.4383 69.3463 76.0864 71.0252 76.3539 72.844C76.4959 73.7967 76.0268 74.3707 75.0597 74.4427C74.8046 74.4612 74.5474 74.4427 74.2902 74.4427H27.7907C26.1715 74.4427 25.7332 73.9674 26.0418 72.3852C26.5686 69.6096 28.0746 67.4966 30.5004 66.0461C30.7206 65.9144 30.9469 65.793 31.1691 65.6675C31.1876 65.6551 31.1959 65.6346 31.2391 65.5605ZM73.5742 71.9531C72.7636 68.9842 69.6917 67.0007 66.4573 67.2806C63.799 67.5151 60.9761 69.8421 60.8157 71.947L73.5742 71.9531ZM57.5977 71.9387C56.569 68.869 53.7255 67.0337 50.5035 67.2826C47.8637 67.4884 45.154 69.6837 44.798 71.9387H57.5977ZM28.7577 71.9387H41.5389C40.9916 69.4306 38.1852 67.3176 35.4138 67.2806C32.274 67.2312 29.4347 69.1858 28.7577 71.9305V71.9387ZM51.1578 59.1226C50.4188 59.1425 49.7167 59.45 49.201 59.9798C48.6854 60.5095 48.3969 61.2196 48.3969 61.9588C48.3969 62.6981 48.6854 63.4082 49.201 63.9379C49.7167 64.4676 50.4188 64.7752 51.1578 64.7951C51.5366 64.8053 51.9137 64.7395 52.2668 64.6015C52.6198 64.4636 52.9416 64.2563 53.2132 63.9919C53.4848 63.7276 53.7007 63.4114 53.8481 63.0622C53.9955 62.713 54.0714 62.3379 54.0714 61.9588C54.0714 61.5798 53.9955 61.2046 53.8481 60.8554C53.7007 60.5062 53.4848 60.1901 53.2132 59.9257C52.9416 59.6614 52.6198 59.4541 52.2668 59.3161C51.9137 59.1782 51.5366 59.1124 51.1578 59.1226ZM35.1483 64.793C35.9003 64.793 36.6214 64.4943 37.1531 63.9626C37.6849 63.4309 37.9836 62.7098 37.9836 61.9578C37.9836 61.2059 37.6849 60.4847 37.1531 59.953C36.6214 59.4213 35.9003 59.1226 35.1483 59.1226C34.3964 59.1226 33.6752 59.4213 33.1435 59.953C32.6118 60.4847 32.3131 61.2059 32.3131 61.9578C32.3131 62.7098 32.6118 63.4309 33.1435 63.9626C33.6752 64.4943 34.3964 64.793 35.1483 64.793ZM64.3402 61.9846C64.3483 62.5419 64.5214 63.0842 64.8375 63.5433C65.1537 64.0023 65.5987 64.3574 66.1165 64.5637C66.6343 64.77 67.2016 64.8183 67.7468 64.7025C68.292 64.5867 68.7906 64.312 69.1798 63.9131C69.5691 63.5141 69.8314 63.0088 69.9336 62.4609C70.0359 61.913 69.9736 61.3471 69.7545 60.8345C69.5354 60.322 69.1695 59.8859 68.7028 59.5812C68.236 59.2765 67.6895 59.1169 67.1322 59.1226C66.761 59.125 66.394 59.2009 66.0523 59.3459C65.7106 59.4909 65.401 59.7022 65.1414 59.9675C64.8818 60.2329 64.6774 60.547 64.5398 60.8918C64.4023 61.2366 64.3344 61.6052 64.3402 61.9763V61.9846Z" fill="white"/>
<path d="M14.2977 59.2562C14.2977 55.4086 14.2977 51.5618 14.2977 47.7156C14.2977 47.0778 14.4191 46.5387 15.0693 46.2754C15.2288 46.2071 15.4014 46.1747 15.5748 46.1803C15.7482 46.1859 15.9183 46.2295 16.0731 46.308C16.2278 46.3865 16.3635 46.4979 16.4706 46.6344C16.5776 46.771 16.6534 46.9294 16.6927 47.0984C16.7549 47.3987 16.7791 47.7056 16.7647 48.0119C16.7647 55.5561 16.7647 63.0961 16.7647 70.6321C16.7647 70.8111 16.775 70.9921 16.7647 71.1711C16.7009 71.953 16.1947 72.4571 15.4952 72.4406C14.7956 72.4242 14.3142 71.9139 14.3121 71.1094C14.2998 68.1343 14.3121 65.1591 14.3121 62.186L14.2977 59.2562Z" fill="white"/>
<path d="M58.9064 26.7472C62.8156 27.1587 65.9739 25.8912 68.1651 22.6877C70.3563 19.4842 70.4037 16.0749 68.5766 12.6492C68.1116 11.7747 68.2166 11.0978 68.8894 10.711C69.5622 10.3242 70.2432 10.5608 70.7102 11.4291C72.9344 15.5667 72.9426 19.727 70.4387 23.7C67.9573 27.6401 64.2497 29.461 59.5771 29.2697C59.2685 29.2553 58.9599 29.2285 58.6574 29.1915C58.3549 29.1544 58.0566 29.0948 57.7747 29.0495C56.9682 30.4671 56.0711 30.5042 55.1514 29.1977C54.7091 28.5681 54.2523 27.9488 53.8326 27.3048C53.2153 26.3624 53.6392 25.4119 54.7502 25.2658C55.5609 25.1567 56.3818 25.1073 57.2007 25.06C58.5154 24.9715 58.9022 25.3501 58.9064 26.7472Z" fill="white"/>
<path d="M61.8259 7.97689C57.9681 7.54687 54.8304 8.7896 52.6165 11.9479C50.4458 15.0506 50.3224 18.3858 51.9993 21.7868C52.0672 21.9247 52.1495 22.0543 52.2194 22.1983C52.6103 22.9596 52.4684 23.6509 51.8491 24.0089C51.2298 24.3669 50.5261 24.1571 50.092 23.4308C49.2629 22.0669 48.734 20.5421 48.5406 18.9578C47.7649 12.4149 51.9252 6.7465 58.4166 5.61282C59.682 5.39267 61.0173 5.55315 62.3259 5.59636C62.7374 5.60871 62.9904 5.67454 63.2435 5.20955C63.6776 4.41124 64.6632 4.38655 65.2372 5.10462C65.8545 5.89058 66.4388 6.70741 66.9799 7.54893C67.1025 7.71759 67.1784 7.91555 67.2001 8.12288C67.2219 8.33021 67.1886 8.53961 67.1037 8.73002C67.0189 8.92043 66.8853 9.08512 66.7166 9.20755C66.5479 9.32997 66.3499 9.40581 66.1425 9.42743C65.1277 9.58275 64.1048 9.67961 63.0789 9.71753C62.2065 9.74428 61.7827 9.13526 61.8259 7.97689Z" fill="white"/>
<path d="M51.3861 36.4484H65.4738C65.7049 36.4384 65.9364 36.4418 66.1672 36.4586C66.8441 36.5389 67.2515 36.9319 67.2906 37.6088C67.3297 38.2857 66.9408 38.7178 66.2927 38.8762C66.0398 38.9179 65.7829 38.9296 65.5273 38.9112H37.1173C36.8367 38.9303 36.5547 38.9095 36.2799 38.8495C35.9982 38.7911 35.7491 38.628 35.583 38.3932C35.4169 38.1583 35.3461 37.8691 35.3849 37.5841C35.4322 36.9298 35.819 36.5553 36.4507 36.4628C36.6811 36.4404 36.9129 36.4356 37.1441 36.4484H51.3861Z" fill="white"/>
<path d="M46.6188 31.8275H56.3097C56.5154 31.8185 56.7216 31.8219 56.9269 31.8378C57.6038 31.9201 58.0112 32.311 58.0524 32.9879C58.0935 33.6649 57.7026 34.0949 57.0565 34.2554C56.8038 34.2981 56.5468 34.3098 56.2911 34.2903H36.8292C36.5992 34.3007 36.3687 34.2925 36.14 34.2657C35.8295 34.23 35.5457 34.0731 35.3503 33.8292C35.155 33.5852 35.0639 33.274 35.0968 32.9633C35.1565 32.274 35.5639 31.9016 36.2367 31.8357C36.5679 31.8028 36.9033 31.8255 37.2366 31.8255L46.6188 31.8275Z" fill="white"/>
</svg>
