<svg width="76" height="76" viewBox="0 0 76 76" fill="none" xmlns="http://www.w3.org/2000/svg">
<path d="M76 74.0757V75.9998H0V74.0757C0.462012 73.2481 1.17822 72.9958 2.10225 73.0255C3.65342 73.0737 5.20459 73.0385 6.77988 73.0385V65.4088H5.48105C3.84639 65.4088 2.36201 64.9449 1.35078 63.622C0.764453 62.8594 0.439746 61.9057 0 61.0373V6.51621C0.248633 5.80186 0.421191 5.04853 0.760742 4.37871C2.20801 1.53242 4.58672 0.144531 7.76328 0.144531C27.926 0.144531 48.0839 0.144531 68.2367 0.144531C68.4835 0.144531 68.7321 0.144531 68.9789 0.15752C69.9782 0.225092 70.9544 0.489348 71.8514 0.935122C72.7483 1.3809 73.5484 1.99941 74.2058 2.75518C75.1706 3.84434 75.5825 5.16728 76 6.50879V61.0373C75.9464 61.1442 75.8999 61.2545 75.8608 61.3676C75.1799 63.789 73.5434 65.162 71.0366 65.3661C70.4336 65.4162 69.8231 65.3661 69.2016 65.3661V73.0311C70.788 73.0311 72.341 73.0663 73.8903 73.0181C74.8218 72.9958 75.538 73.25 76 74.0757ZM23.4531 73.0199V42.4492C23.4531 40.8442 23.9281 40.3618 25.522 40.36C28.2681 40.36 31.0142 40.36 33.7603 40.36C35.4636 40.36 35.9219 40.8183 35.9219 42.5067V72.9809H40.0781V72.0402C40.0781 66.3118 40.0781 60.5833 40.0781 54.8549C40.0781 53.4002 40.5902 52.8918 42.0431 52.8899C44.8634 52.8899 47.6837 52.8899 50.504 52.8899C52.0645 52.8899 52.545 53.3705 52.545 54.931V72.9939H56.7013V57.7605C56.7013 57.5639 56.7013 57.3653 56.7013 57.1686C56.7551 56.252 57.3507 55.6175 58.1634 55.6045C58.9761 55.5915 59.6162 56.2502 59.6645 57.2039C59.6737 57.4024 59.6645 57.5991 59.6645 57.7977V72.9939H66.1345V41.1634H59.6719V41.9408C59.6719 43.4982 59.6719 45.0537 59.6719 46.6073C59.6719 47.869 59.1152 48.5945 58.1689 48.5797C57.2227 48.5648 56.7068 47.8505 56.7031 46.5721V40.2022C56.7031 38.6455 57.1855 38.1501 58.7274 38.1482C61.5243 38.1482 64.3198 38.1482 67.1142 38.1482C68.7099 38.1482 69.1719 38.6232 69.1719 40.2431V62.4437H70.2035C72.2575 62.4437 73.0312 61.6737 73.0312 59.6364V13.836H2.96875V59.8238C2.9635 60.0212 2.96845 60.2188 2.98359 60.4157C3.07637 61.3657 3.75176 62.2211 4.65352 62.3491C5.34375 62.4456 6.05996 62.3677 6.82627 62.3677V61.4641C6.81514 56.3077 6.41064 56.7363 11.5967 56.7363C13.428 56.7363 15.2575 56.7363 17.0889 56.7363C18.8664 56.7363 19.2969 57.1575 19.2969 58.9035V73.0144L23.4531 73.0199ZM73.0312 10.7856V8.27148C73.0312 4.85928 71.289 3.10957 67.8916 3.10957H8.0917C7.74658 3.10957 7.39775 3.10957 7.05449 3.13926C5.18047 3.3248 3.56807 4.51602 3.20625 6.31582C2.9168 7.76123 2.98174 9.28457 2.88711 10.7856H73.0312ZM32.9012 73.0032V43.3565H26.4608V73.0032H32.9012ZM43.0784 72.9847H49.5187V55.8921H43.0784V72.9847ZM9.84883 59.7385V72.9791H16.2892V59.7385H9.84883Z" fill="white"/>
<path d="M15.5619 37.1536C17.1205 35.5969 18.6568 34.0605 20.2006 32.5261C21.0393 31.6874 21.8334 30.7968 22.7296 30.0267C23.7705 29.1306 24.3383 28.3698 23.726 26.7945C22.93 24.7405 24.1472 22.2542 26.0268 21.1149C26.985 20.5093 28.1126 20.2276 29.2431 20.3115C30.3736 20.3953 31.4472 20.8403 32.3057 21.5807C33.1474 22.2975 33.746 23.2579 34.0189 24.3294C34.2917 25.4008 34.2254 26.5305 33.829 27.5627C33.7492 27.7668 33.6527 27.9653 33.5358 28.2269C34.3949 29.0749 35.2577 29.9191 36.1149 30.7708C38.5271 33.1829 40.9392 35.5802 43.3513 38.0071C43.6927 38.3522 43.9636 38.445 44.4404 38.2669C45.6799 37.7989 47.052 37.8261 48.272 38.343C48.4909 38.4302 48.8899 38.4246 49.0309 38.2873C52.1982 35.1645 55.3395 32.0158 58.4938 28.8726C58.5286 28.8147 58.5554 28.7522 58.5735 28.6871C57.6458 27.2231 57.3452 25.6349 57.9093 23.9204C58.3098 22.7212 59.1233 21.7032 60.2047 21.0482C61.2862 20.3932 62.5652 20.1438 63.8135 20.3444C65.0618 20.5451 66.1982 21.1827 67.02 22.1435C67.8417 23.1044 68.2954 24.326 68.2999 25.5903C68.3222 28.1546 66.3888 30.4925 63.8635 30.8302C63.1027 30.9341 62.303 30.743 61.5219 30.7411C61.2194 30.7411 60.8224 30.7912 60.6275 30.9823C57.4955 34.0698 54.3932 37.187 51.2704 40.2856C50.9847 40.5695 50.9346 40.7848 51.0849 41.1744C51.9569 43.336 51.5617 45.2991 49.9716 46.9876C49.2379 47.752 48.2884 48.2743 47.25 48.4848C46.2117 48.6953 45.1337 48.5841 44.1603 48.1658C42.0487 47.2603 40.9336 45.5886 40.8724 43.3175C40.852 42.5363 41.1507 41.731 41.3975 40.9666C41.5181 40.5955 41.583 40.3821 41.2676 40.0741C38.1133 36.9458 34.959 33.7952 31.8047 30.6724C31.6915 30.5869 31.5601 30.5289 31.4207 30.5028C31.2813 30.4767 31.1377 30.4833 31.0013 30.5222C29.7612 31.0469 28.3676 31.0787 27.1048 30.6112C26.7022 30.4628 26.4405 30.4943 26.127 30.8098C23.4291 33.5088 20.7275 36.1962 18.0223 38.8718C17.7273 39.1612 17.6957 39.3746 17.8553 39.7587C19.0595 42.6476 17.5974 45.9058 14.701 46.854C11.6617 47.8504 8.52227 46.1693 7.78936 43.0707C7.33106 41.1336 7.83389 39.3802 9.29971 38.0034C10.8509 36.545 12.6952 36.1832 14.7288 36.8178C14.9849 36.8994 15.2316 37.0182 15.5619 37.1536ZM63.0063 23.258C62.5378 23.2452 62.0761 23.3719 61.6797 23.6219C61.2834 23.8719 60.9702 24.234 60.7799 24.6622C60.5896 25.0905 60.5308 25.5656 60.6109 26.0273C60.691 26.4891 60.9065 26.9166 61.2299 27.2557C61.5534 27.5948 61.9703 27.8302 62.4277 27.932C62.8851 28.0339 63.3625 27.9976 63.7993 27.8277C64.236 27.6578 64.6125 27.3621 64.8809 26.978C65.1494 26.5938 65.2977 26.1386 65.307 25.6701C65.3152 25.047 65.0789 24.4456 64.6488 23.9947C64.2187 23.5437 63.629 23.2793 63.0063 23.258ZM48.5336 43.3138C48.5453 42.8441 48.4172 42.3816 48.1655 41.985C47.9137 41.5883 47.5498 41.2755 47.1199 41.0861C46.6899 40.8968 46.2134 40.8395 45.7509 40.9216C45.2883 41.0037 44.8606 41.2214 44.5221 41.5471C44.1836 41.8729 43.9495 42.2918 43.8496 42.7509C43.7498 43.2099 43.7886 43.6883 43.9612 44.1252C44.1338 44.5621 44.4324 44.9379 44.819 45.2047C45.2057 45.4715 45.6629 45.6174 46.1326 45.6238C46.7569 45.6323 47.3593 45.3947 47.8097 44.9624C48.2601 44.5301 48.5222 43.9378 48.5392 43.3138H48.5336ZM31.198 25.6237C31.2009 25.3153 31.1429 25.0094 31.0274 24.7235C30.9119 24.4376 30.7411 24.1773 30.5247 23.9575C30.3084 23.7377 30.0508 23.5628 29.7668 23.4428C29.4827 23.3227 29.1777 23.2599 28.8693 23.258C28.3999 23.2506 27.939 23.3831 27.5451 23.6385C27.1512 23.894 26.8422 24.2608 26.6574 24.6924C26.4727 25.124 26.4205 25.6008 26.5075 26.0621C26.5946 26.5234 26.8169 26.9484 27.1462 27.283C27.4756 27.6175 27.897 27.8466 28.3569 27.9409C28.8168 28.0352 29.2943 27.9906 29.7288 27.8127C30.1632 27.6348 30.5349 27.3316 30.7965 26.9418C31.0582 26.552 31.1979 26.0932 31.198 25.6237ZM15.317 41.8275C15.3175 41.5192 15.2571 41.2137 15.1393 40.9287C15.0215 40.6437 14.8487 40.3848 14.6306 40.1667C14.4126 39.9487 14.1536 39.7758 13.8686 39.658C13.5836 39.5403 13.2782 39.4799 12.9698 39.4804C12.3468 39.4831 11.7495 39.729 11.3052 40.1657C10.8609 40.6024 10.6047 41.1954 10.5911 41.8183C10.5898 42.1336 10.6516 42.4459 10.7729 42.737C10.8941 43.0281 11.0724 43.2919 11.2971 43.5131C11.5219 43.7342 11.7886 43.9082 12.0816 44.0246C12.3746 44.1411 12.688 44.1978 13.0032 44.1914C13.311 44.1902 13.6154 44.1279 13.8989 44.0081C14.1824 43.8882 14.4392 43.7133 14.6545 43.4933C14.8697 43.2734 15.0391 43.0129 15.1529 42.7269C15.2666 42.4409 15.3224 42.1352 15.317 41.8275Z" fill="white"/>
<path d="M11.8381 21.7775C10.7508 21.7775 9.66159 21.7775 8.57429 21.7775C7.54079 21.7664 6.86726 21.1967 6.84128 20.3376C6.8153 19.4786 7.50925 18.8273 8.57243 18.8217C10.7743 18.8081 12.9755 18.8081 15.176 18.8217C16.2411 18.8217 16.9369 19.4544 16.9091 20.3358C16.8812 21.2171 16.2095 21.7664 15.1779 21.7775C14.0646 21.7868 12.9513 21.7775 11.8381 21.7775Z" fill="white"/>
<path d="M11.825 28.8898C10.7377 28.8898 9.64856 28.8991 8.56126 28.8898C7.53333 28.8768 6.85794 28.2942 6.84124 27.4351C6.82454 26.576 7.51477 25.9377 8.58538 25.9322C10.7884 25.921 12.9896 25.921 15.189 25.9322C16.2206 25.9322 16.8923 26.5278 16.909 27.3869C16.9257 28.2459 16.2318 28.8712 15.1649 28.8898C14.0516 28.9046 12.9383 28.8898 11.825 28.8898Z" fill="white"/>
<path d="M22.4234 20.2837C22.4236 20.6701 22.273 21.0413 22.0038 21.3185C21.7346 21.5956 21.3679 21.7569 20.9817 21.768C20.7844 21.7767 20.5874 21.7455 20.4025 21.6764C20.2175 21.6073 20.0483 21.5016 19.905 21.3658C19.7617 21.2299 19.6473 21.0666 19.5684 20.8855C19.4896 20.7045 19.448 20.5094 19.4461 20.312C19.4442 20.1145 19.4821 19.9187 19.5575 19.7362C19.6329 19.5537 19.7443 19.3882 19.885 19.2497C20.0257 19.1111 20.1928 19.0023 20.3765 18.9297C20.5601 18.8571 20.7565 18.8222 20.9539 18.8271C21.3402 18.8309 21.7098 18.9852 21.9842 19.2572C22.2586 19.5291 22.4162 19.8974 22.4234 20.2837Z" fill="white"/>
<path d="M58.2025 50.94C58.3935 50.9419 58.5823 50.9815 58.758 51.0564C58.9338 51.1313 59.093 51.2401 59.2267 51.3765C59.3604 51.513 59.466 51.6744 59.5373 51.8517C59.6086 52.0289 59.6443 52.2185 59.6423 52.4095C59.6404 52.6005 59.6008 52.7893 59.5259 52.965C59.451 53.1408 59.3422 53.3001 59.2057 53.4338C59.0693 53.5675 58.9078 53.673 58.7306 53.7443C58.5534 53.8156 58.3638 53.8513 58.1728 53.8493C57.7861 53.8393 57.4182 53.6802 57.1461 53.4053C56.874 53.1304 56.7186 52.761 56.7125 52.3742C56.7256 51.9883 56.8884 51.6227 57.1666 51.3549C57.4448 51.0871 57.8164 50.9383 58.2025 50.94Z" fill="white"/>
<path d="M49.6487 8.44209H33.3206C32.1888 8.4291 31.4763 7.85205 31.4818 6.95771C31.4874 6.06338 32.1981 5.48633 33.3373 5.48633C44.2685 5.48633 55.1997 5.48633 66.1309 5.48633C67.4798 5.48633 68.2795 6.41406 67.8564 7.47725C67.5447 8.26396 66.8916 8.45322 66.1142 8.45137C62.6277 8.44209 59.1395 8.45137 55.653 8.45137L49.6487 8.44209Z" fill="white"/>
<path d="M10.9715 6.99512C10.9489 7.38095 10.7805 7.74377 10.5004 8.01008C10.2203 8.2764 9.84947 8.42629 9.46299 8.42939C9.07778 8.40733 8.71529 8.23992 8.44873 7.96096C8.18217 7.682 8.03139 7.31228 8.02686 6.92646C8.04985 6.5411 8.21812 6.1788 8.49772 5.91262C8.77733 5.64644 9.14747 5.4962 9.5335 5.49219C9.91904 5.5138 10.282 5.68101 10.5489 5.96002C10.8159 6.23903 10.9669 6.609 10.9715 6.99512Z" fill="white"/>
<path d="M15.458 5.49219C15.8424 5.51122 16.2054 5.67471 16.4745 5.94994C16.7435 6.22516 16.8987 6.59183 16.909 6.97656C16.9038 7.3668 16.7438 7.739 16.4642 8.01128C16.1846 8.28357 15.8083 8.43363 15.4181 8.42847C15.0279 8.4233 14.6557 8.26332 14.3834 7.98373C14.1111 7.70414 13.961 7.32783 13.9662 6.9376C13.9871 6.55308 14.1524 6.19062 14.4289 5.92266C14.7055 5.6547 15.073 5.50097 15.458 5.49219Z" fill="white"/>
<path d="M21.3601 8.4297C20.9749 8.4116 20.6107 8.24858 20.3406 7.9733C20.0705 7.69803 19.9144 7.33084 19.9036 6.94533C19.9073 6.55509 20.0658 6.18231 20.3444 5.90898C20.6229 5.63565 20.9986 5.48417 21.3889 5.48786C21.7791 5.49155 22.1519 5.65011 22.4252 5.92866C22.6985 6.20721 22.85 6.58293 22.8463 6.97316C22.8282 7.35871 22.6649 7.72314 22.3893 7.9933C22.1136 8.26346 21.7459 8.41936 21.3601 8.4297Z" fill="white"/>
</svg>
