<svg width="75" height="80" viewBox="0 0 75 80" fill="none" xmlns="http://www.w3.org/2000/svg">
<path d="M6.95957 62.6103H67.7848V61.6718C67.7848 52.5195 67.72 43.3651 67.8214 34.2128C67.8559 31.2527 65.9163 29.1642 62.9821 29.4253C62.7426 29.4468 62.501 29.4253 62.1299 29.4253V30.312C62.1299 32.1157 62.1299 33.9194 62.1299 35.7231C62.1299 36.6401 61.8407 36.9227 60.9173 36.9443C60.2442 36.9594 59.5689 36.9443 58.8936 36.9443C58.2183 36.9443 57.7479 36.6724 57.7716 35.9669C57.7954 35.3196 58.2549 35.0543 58.8871 35.0715C59.3186 35.0845 59.7501 35.0715 60.2183 35.0715V29.4274H59.2021C57.4502 29.4274 55.6961 29.4274 53.9442 29.4274C53.2969 29.4274 52.8115 29.2397 52.7338 28.5299C52.6691 27.9387 53.1394 27.5374 53.9269 27.5309C55.7069 27.5158 57.4868 27.5309 59.2668 27.5309H60.2701V26.0466C60.2701 24.4565 60.2701 22.8685 60.2701 21.2806C60.2701 20.3118 60.5549 20.0486 61.5387 20.0421C62.5894 20.0421 63.6423 20.0206 64.693 20.0421C65.159 20.0421 65.3834 19.9343 65.556 19.4467C65.9238 18.3477 66.6871 17.4247 67.6975 16.8573C68.708 16.2898 69.8934 16.1185 71.0232 16.3765C73.2412 16.8663 74.8701 19.0238 74.691 21.2417C74.6155 22.3976 74.12 23.4859 73.2978 24.3017C72.4756 25.1176 71.3835 25.6046 70.2271 25.6712C69.221 25.7251 68.2245 25.4512 67.3873 24.8906C66.5501 24.33 65.9174 23.513 65.5841 22.5621C65.3899 22.0163 65.1353 21.8674 64.6024 21.8955C63.8019 21.9343 62.9972 21.8955 62.1601 21.8955V27.5202C62.5657 27.5202 62.9562 27.5202 63.3467 27.5202C67.1634 27.5633 69.6748 30.0725 69.6791 33.8784C69.6791 44.4863 69.6791 55.0942 69.6791 65.702C69.6791 69.4993 67.131 72.0301 63.3316 72.0365C59.0712 72.0365 54.8101 72.0365 50.5482 72.0365H49.6377V77.6807C50.7726 77.6807 51.8708 77.6807 52.969 77.6807C53.2646 77.6807 53.6162 77.5987 53.832 77.7324C54.1384 77.9201 54.5461 78.2869 54.531 78.5566C54.5138 78.8824 54.1448 79.2449 53.8428 79.4779C53.668 79.6116 53.3207 79.534 53.051 79.534H21.5941C20.552 79.534 20.0838 79.2449 20.0838 78.6084C20.0838 77.9719 20.5412 77.6785 21.5833 77.6763H25.0354V72.0581H11.4861C7.51621 72.0581 5.01347 69.5662 5.01347 65.6136C5.01347 55.0877 5.01347 44.5611 5.01347 34.0338C5.01347 30.0337 7.50758 27.5612 11.5357 27.5396H12.5282V21.93C11.5486 21.93 10.5627 21.8976 9.58097 21.9602C9.41484 21.9602 9.22498 22.3637 9.12789 22.6075C8.78381 23.5073 8.17513 24.2817 7.38208 24.8286C6.58904 25.3755 5.64888 25.6693 4.68553 25.6712C3.73604 25.6596 2.81165 25.3646 2.03091 24.8241C1.25018 24.2837 0.648686 23.5223 0.303578 22.6377C-0.13469 21.4786 -0.0971614 20.1933 0.407988 19.0617C0.913137 17.9302 1.84497 17.0441 3.0005 16.5966C3.57157 16.3681 4.18253 16.2559 4.79753 16.2667C5.41252 16.2775 6.01917 16.411 6.58187 16.6594C7.14458 16.9078 7.65201 17.2661 8.07439 17.7132C8.49678 18.1604 8.82561 18.6874 9.04159 19.2633C9.29618 19.9494 9.63275 20.0831 10.2671 20.0529C11.2099 20.0098 12.1549 20.0378 13.0978 20.0529C14.1765 20.0529 14.4182 20.3075 14.4246 21.4014C14.4246 23.1274 14.4246 24.8534 14.4246 26.5795V27.5525H20.7074C21.3546 27.5525 21.907 27.7338 21.9544 28.504C21.9911 29.0995 21.5229 29.4447 20.7182 29.4468C18.9102 29.4468 17.1043 29.4468 15.2963 29.4468H14.4721V35.0953C14.9424 35.0953 15.3912 35.0953 15.8378 35.0953C16.4851 35.0845 16.9166 35.3714 16.9166 36.0165C16.9166 36.6616 16.4635 36.9551 15.8378 36.9637C15.1107 36.9745 14.3815 36.9853 13.6544 36.9637C12.8432 36.9356 12.5584 36.6336 12.5541 35.7965C12.5433 33.7274 12.5541 31.6561 12.5541 29.5979C9.63491 28.7478 6.90995 30.6766 6.90563 33.6173C6.88981 43.0673 6.88981 52.5173 6.90563 61.9673C6.9121 62.1529 6.94231 62.36 6.95957 62.6103ZM67.8452 64.5629H6.97467C6.97467 65.3698 6.86464 66.14 6.99625 66.8649C7.36303 68.9189 9.04159 70.1487 11.3502 70.1509H61.9831C62.6024 70.1509 63.2237 70.1509 63.8429 70.1509C64.7128 70.1417 65.555 69.8435 66.2369 69.3034C66.9189 68.7632 67.4019 68.0117 67.61 67.167C67.8063 66.3407 67.7718 65.4669 67.8452 64.5629ZM47.655 77.6526V72.1077H27.0397V77.6526H47.655ZM72.801 21.0044C72.8086 20.258 72.5215 19.5388 72.002 19.0028C71.4826 18.4668 70.7727 18.1572 70.0264 18.1414C69.2801 18.141 68.563 18.4315 68.0273 18.9511C67.4916 19.4707 67.1794 20.1786 67.1569 20.9246C67.1545 21.6713 67.4465 22.3889 67.9694 22.922C68.4924 23.455 69.2043 23.7606 69.9509 23.7725C70.32 23.7785 70.6866 23.7116 71.0297 23.5756C71.3729 23.4396 71.6858 23.2373 71.9506 22.9801C72.2154 22.7229 72.4268 22.4161 72.5727 22.077C72.7187 21.738 72.7962 21.3735 72.801 21.0044ZM4.66827 23.7768C5.41725 23.7884 6.14036 23.5031 6.67965 22.9832C7.21893 22.4633 7.53055 21.7511 7.54642 21.0022C7.54436 20.2538 7.24994 19.5357 6.72596 19.0013C6.20197 18.4668 5.4899 18.1582 4.74162 18.1414C3.99584 18.1367 3.27831 18.4263 2.74473 18.9474C2.21115 19.4684 1.90457 20.1789 1.89152 20.9246C1.88524 21.2945 1.95223 21.6621 2.08861 22.006C2.225 22.35 2.4281 22.6636 2.6862 22.9287C2.9443 23.1938 3.25231 23.4052 3.59249 23.5508C3.93266 23.6964 4.29828 23.7732 4.66827 23.7768Z" fill="white"/>
<path d="M24.3945 28.3272C23.7731 27.5268 23.1841 26.7587 22.5843 25.9993C22.183 25.4901 22.2003 25.0305 22.6663 24.571C23.7408 23.5095 24.8095 22.4436 25.8724 21.3735C26.3536 20.8902 26.8455 20.8643 27.3827 21.2807C28.0623 21.8115 28.7204 22.3746 29.441 22.8428C29.5904 22.9213 29.7541 22.9691 29.9223 22.9836C30.0905 22.998 30.2599 22.9788 30.4205 22.9269C31.3094 22.6249 32.1465 22.1761 33.0462 21.8978C33.2403 21.8616 33.4157 21.7588 33.5421 21.6072C33.6686 21.4556 33.7381 21.2646 33.7388 21.0671C33.8316 20.2041 33.9545 19.3584 34.0473 18.504C34.125 17.8179 34.5155 17.5137 35.1865 17.5137C36.6428 17.5137 38.0992 17.5137 39.5555 17.5137C40.315 17.5137 40.6817 17.8912 40.7551 18.6334C40.8392 19.4964 40.9299 20.3487 41.0917 21.1923C41.1316 21.3311 41.1997 21.4603 41.2917 21.5717C41.3838 21.683 41.4978 21.7742 41.6267 21.8395C42.5307 22.2516 43.4801 22.5645 44.3776 22.9873C44.5345 23.0839 44.7199 23.1235 44.9026 23.0995C45.0853 23.0756 45.2541 22.9895 45.3808 22.8557C46.0281 22.3207 46.7013 21.8352 47.3571 21.3152C47.9138 20.873 48.4359 20.8837 48.9321 21.4015C49.9577 22.4357 50.9876 23.4641 52.0217 24.4868C52.5331 24.9917 52.546 25.503 52.1059 26.0597C51.5039 26.817 50.9171 27.585 50.3971 28.2539C50.9408 29.529 51.4263 30.7199 51.9613 31.8893C52.0274 32.0042 52.1162 32.1043 52.2223 32.1837C52.3284 32.2631 52.4496 32.32 52.5784 32.351C53.3184 32.4977 54.0692 32.584 54.8201 32.6596C55.5342 32.7286 55.8988 33.0911 55.8988 33.8074C55.8988 35.2874 55.8988 36.7697 55.8988 38.2497C55.8988 38.8733 55.6054 39.2638 54.9517 39.3436C54.2979 39.4234 53.6722 39.5593 53.0271 39.5939C52.5611 39.6219 52.354 39.7665 52.2008 40.2519C51.8383 41.4019 51.3378 42.5044 50.9343 43.6436C50.8427 43.9455 50.8721 44.2712 51.0163 44.5519C51.3586 45.0672 51.7326 45.5608 52.1361 46.0298C52.5309 46.5325 52.5201 47.0158 52.0649 47.471C50.9991 48.5383 49.9311 49.6048 48.8609 50.6706C48.4079 51.1216 47.8599 51.223 47.4348 50.7483C46.2741 49.4538 45.1133 49.4128 43.7109 50.4074C43.0766 50.8562 42.2006 50.9554 41.4671 51.2812C41.2103 51.4179 41.018 51.6506 40.932 51.9285C40.8297 52.4266 40.762 52.9313 40.7292 53.4388C40.6451 54.1313 40.2977 54.4938 39.5533 54.483C38.097 54.4657 36.6407 54.4636 35.1843 54.483C34.4443 54.483 33.9891 54.1184 34.0214 53.4409C34.0991 51.8379 33.3742 51.0525 31.8272 50.7397C31.0591 50.5865 30.3364 50.1205 29.6503 49.7084C29.195 49.4344 28.8908 49.4646 28.5197 49.8033C28.1486 50.1421 27.7171 50.4398 27.3137 50.7526C26.8066 51.1431 26.3234 51.1194 25.8681 50.6663C24.7994 49.6005 23.7322 48.534 22.6663 47.4667C22.2111 47.0136 22.1874 46.539 22.5843 46.0276C23.0633 45.4127 23.8249 44.8216 23.9112 44.1506C23.9975 43.4796 23.374 42.746 23.0806 42.0319C22.9274 41.6608 22.7138 41.2767 22.6987 40.8905C22.6491 39.7578 21.9457 39.5248 21.0029 39.473C18.4354 39.3307 18.8691 38.9337 18.8453 37.0566C18.8324 35.9778 18.8453 34.8991 18.8453 33.8203C18.8453 33.104 19.1733 32.7286 19.8917 32.6509C20.7548 32.5603 21.7753 32.6833 22.4074 32.2496C22.9835 31.8526 23.1194 30.83 23.4862 30.0921C23.7473 29.5182 24.0644 28.9551 24.3945 28.3272ZM53.9808 34.4719C53.1178 34.3511 52.3303 34.2 51.532 34.1418C50.8308 34.09 50.5287 33.7362 50.2806 33.1062C49.7391 31.7404 49.1393 30.392 48.464 29.0845C48.1468 28.4696 48.1123 28.0058 48.5524 27.475C49.1134 26.7954 49.6312 26.0834 50.0627 25.5332L47.8922 23.2441C47.2104 23.7748 46.4941 24.3013 45.8124 24.8687C45.26 25.3304 44.7638 25.3002 44.1144 25.0003C42.8761 24.4216 41.6061 23.913 40.3106 23.4771C39.6504 23.2613 39.3246 22.9356 39.2621 22.2473C39.1801 21.3174 39.0247 20.394 38.8975 19.4576H35.7798C35.6525 20.435 35.5101 21.3627 35.4174 22.2948C35.3526 22.942 35.0333 23.257 34.4076 23.4706C33.0915 23.9237 31.7949 24.4458 30.5241 25.024C29.9049 25.3067 29.4216 25.3261 28.893 24.8903C28.1918 24.3121 27.4582 23.7684 26.7959 23.2549L24.511 25.4124C25.0634 26.1244 25.5898 26.8321 26.1507 27.5203C26.5391 27.9993 26.5326 28.4286 26.2522 28.9939C25.5704 30.3575 24.9576 31.7534 24.3665 33.1601C24.1378 33.7103 23.8573 34.0684 23.2294 34.1332C22.4031 34.2151 21.5811 34.3489 20.7418 34.4611V37.5593C21.5077 37.6564 22.2262 37.7578 22.9468 37.8355C23.6178 37.9088 23.9328 38.2497 24.1486 38.9142C24.6469 40.4655 25.2467 41.9866 25.8746 43.4861C26.1141 44.0513 26.1551 44.4915 25.7667 44.9704C25.3352 45.5077 24.9166 46.0643 24.5736 46.5109C25.3417 47.3049 26.045 48.0212 26.7613 48.7763C27.1928 48.4441 27.6632 48.1291 28.0817 47.7493C28.6815 47.2078 29.2123 47.2768 29.9005 47.6587C31.0699 48.306 32.2738 49.0654 33.5425 49.3287C35.1326 49.6566 35.7475 50.4441 35.6892 51.9414C35.6676 52.4873 35.9287 52.6534 36.4271 52.5995C36.6154 52.5887 36.8041 52.5887 36.9924 52.5995C38.8673 52.5995 38.8802 52.5995 39.1111 50.7656C39.1952 50.1183 39.521 49.7559 40.1639 49.6286C41.8344 49.2995 43.418 48.6256 44.8134 47.6501C45.4607 47.2035 45.985 47.2423 46.5567 47.7364C47.0012 48.1183 47.4823 48.4592 47.8512 48.7504L50.1015 46.5433C49.7089 46.0341 49.2903 45.4645 48.8545 44.9294C48.5136 44.4979 48.4424 44.0664 48.738 43.5918C49.6442 42.1233 50.2622 40.4955 50.5589 38.7956C50.669 38.1979 51.0336 37.9196 51.6032 37.8527C52.2181 37.7794 52.8416 37.747 53.4479 37.6262C53.642 37.5874 53.9312 37.3392 53.9419 37.171C54.0067 36.2907 53.9808 35.4061 53.9808 34.4719Z" fill="white"/>
<path d="M56.2485 10.0113C56.982 9.00159 57.4761 8.0458 58.2183 7.35755C59.7113 5.97673 61.9767 5.89042 63.7027 6.96919C64.5403 7.4955 65.1906 8.2726 65.5609 9.18989C65.9312 10.1072 66.0028 11.1179 65.7653 12.0782C65.2562 14.0761 63.5711 15.4591 61.4503 15.6274C60.4737 15.6873 59.5034 15.4343 58.6805 14.905C57.8575 14.3758 57.2248 13.598 56.8742 12.6845C56.6217 11.9941 56.2959 11.7978 55.6034 11.8474C54.6882 11.9053 53.7704 11.9103 52.8547 11.8625C52.2915 11.8387 52.1082 12.0243 52.1168 12.5939C52.1448 14.7514 52.1276 16.9089 52.1276 19.0557C52.1276 19.2973 52.1276 19.5411 52.1082 19.7806C52.0925 20.0161 51.9864 20.2364 51.812 20.3955C51.6377 20.5546 51.4086 20.6401 51.1727 20.6343C50.9368 20.6284 50.7122 20.5316 50.546 20.3641C50.3798 20.1966 50.2847 19.9713 50.2807 19.7353C50.2656 18.5508 50.2656 17.3642 50.2656 16.1775C50.2656 14.5357 50.2656 12.8938 50.2656 11.2519C50.2656 10.2853 50.5439 10.0178 51.5278 10.0113C53.202 10.0048 54.8698 10.0113 56.2485 10.0113ZM61.1871 13.7546C61.745 13.7576 62.2914 13.595 62.7569 13.2873C63.2224 12.9797 63.5862 12.5408 63.8022 12.0264C64.0182 11.5119 64.0767 10.9448 63.9703 10.3971C63.8639 9.84933 63.5974 9.34545 63.2045 8.94923C62.8116 8.55301 62.31 8.28226 61.7631 8.17125C61.2163 8.06024 60.6488 8.11396 60.1325 8.32562C59.6162 8.53728 59.1743 8.89735 58.8628 9.36026C58.5512 9.82317 58.384 10.3681 58.3823 10.9261C58.3794 11.673 58.6732 12.3906 59.1992 12.921C59.7251 13.4513 60.4401 13.7512 61.1871 13.7546Z" fill="white"/>
<path d="M18.1506 10.0115C19.8011 10.0115 21.4452 10.0115 23.0892 10.0115C24.168 10.0115 24.4247 10.2683 24.4247 11.3406C24.4247 14.0871 24.4247 16.8336 24.4247 19.578C24.4247 20.2253 24.114 20.6417 23.4711 20.6309C22.8691 20.6201 22.5714 20.1994 22.5692 19.6061C22.5692 19.3903 22.5692 19.1746 22.5692 18.9588C22.5692 16.8854 22.5347 14.812 22.5865 12.7408C22.6059 12.0029 22.3707 11.8131 21.6695 11.8562C20.7532 11.9026 19.8351 11.9026 18.9187 11.8562C18.3664 11.8325 18.088 11.9706 17.8852 12.5509C17.5131 13.5624 16.8037 14.4147 15.8766 14.9642C14.9495 15.5137 13.8613 15.7268 12.7954 15.5677C11.7295 15.4086 10.751 14.8869 10.0248 14.0906C9.29854 13.2943 8.869 12.272 8.80849 11.196C8.74044 10.0786 9.07393 8.97363 9.74879 8.08043C10.4237 7.18723 11.3955 6.56458 12.489 6.32479C13.5825 6.085 14.7257 6.24385 15.7124 6.77269C16.6991 7.30153 17.4644 8.16555 17.8701 9.20891C17.9629 9.4635 18.0449 9.72024 18.1506 10.0115ZM16.3102 10.9781C16.3196 10.4191 16.1628 9.86984 15.8598 9.4C15.5567 8.93016 15.121 8.56084 14.6079 8.33883C14.0947 8.11682 13.5273 8.05211 12.9773 8.15289C12.4274 8.25368 11.9197 8.51543 11.5187 8.90498C11.1176 9.29453 10.8412 9.79436 10.7245 10.3411C10.6077 10.8879 10.6559 11.457 10.8629 11.9764C11.0699 12.4958 11.4264 12.942 11.8872 13.2586C12.348 13.5752 12.8924 13.7479 13.4515 13.7548C14.1972 13.7601 14.915 13.4718 15.4499 12.9523C15.9848 12.4327 16.2938 11.7236 16.3102 10.9781Z" fill="white"/>
<path d="M38.2999 9.32317C38.2999 11.0125 38.2999 12.6522 38.2999 14.2855C38.2999 15.1485 37.959 15.621 37.3592 15.6296C36.7594 15.6383 36.4013 15.1593 36.3991 14.3071C36.3991 12.6415 36.3991 10.978 36.3991 9.34474C33.5382 8.19046 32.2351 6.20553 32.7313 3.81067C32.9431 2.72619 33.5291 1.75055 34.387 1.05414C35.2449 0.357731 36.3202 -0.0151989 37.425 0.000474659C38.5299 0.0161483 39.5941 0.41943 40.4319 1.13989C41.2697 1.86036 41.8278 2.85222 42.0087 3.94228C42.3992 6.30694 41.0551 8.28755 38.2999 9.32317ZM40.1554 4.64995C40.1496 4.28162 40.0713 3.91804 39.925 3.57997C39.7787 3.2419 39.5672 2.93596 39.3026 2.67962C39.0381 2.42327 38.7256 2.22155 38.3831 2.08596C38.0406 1.95038 37.6747 1.88358 37.3064 1.88939C36.9381 1.8952 36.5745 1.97349 36.2364 2.11982C35.8983 2.26614 35.5924 2.47761 35.336 2.74217C35.0797 3.00672 34.878 3.31918 34.7424 3.6617C34.6068 4.00421 34.54 4.37008 34.5458 4.73841C34.5575 5.48229 34.8643 6.19104 35.3986 6.70874C35.9329 7.22645 36.651 7.5107 37.3948 7.49897C38.1387 7.48724 38.8475 7.18049 39.3652 6.64619C39.8829 6.1119 40.1671 5.39383 40.1554 4.64995Z" fill="white"/>
<path d="M37.3636 28.1455C39.0232 28.1506 40.644 28.648 42.0209 29.5745C43.3978 30.5011 44.4689 31.8153 45.0987 33.3508C45.7284 34.8863 45.8886 36.5741 45.5588 38.2007C45.2291 39.8272 44.4243 41.3194 43.2462 42.4884C42.0681 43.6574 40.5698 44.4506 38.9408 44.7678C37.3117 45.085 35.6252 44.9118 34.0946 44.2702C32.564 43.6286 31.2581 42.5474 30.3422 41.1634C29.4263 39.7794 28.9415 38.1548 28.9492 36.4952C28.9708 34.2762 29.8662 32.1552 31.4414 30.5921C33.0166 29.029 35.1445 28.1499 37.3636 28.1455ZM37.3851 30.0463C36.1041 30.0408 34.8502 30.4148 33.7814 31.1209C32.7126 31.827 31.8767 32.8337 31.3792 34.0142C30.8816 35.1946 30.7447 36.4959 30.9856 37.7541C31.2266 39.0122 31.8345 40.1709 32.733 41.0841C33.6314 41.9972 34.7801 42.6239 36.0341 42.8852C37.2882 43.1465 38.5916 43.0307 39.7799 42.5524C40.9683 42.0741 41.9885 41.2547 42.7119 40.1975C43.4352 39.1403 43.8295 37.8926 43.8448 36.6117C43.8571 35.755 43.6992 34.9044 43.3802 34.1092C43.0612 33.314 42.5876 32.5901 41.9867 31.9794C41.3858 31.3686 40.6696 30.8833 39.8797 30.5515C39.0898 30.2196 38.2419 30.0479 37.3851 30.0463Z" fill="white"/>
</svg>
