<svg width="78" height="77" viewBox="0 0 78 77" fill="none" xmlns="http://www.w3.org/2000/svg">
<path d="M53.6111 60.2246L41.3193 47.9225C34.0467 52.7658 26.1915 53.7933 17.7536 51.005C16.9881 52.7913 16.2226 54.5316 15.4877 56.277C14.6226 58.2929 13.7882 60.3216 12.8798 62.317C12.6016 62.9244 12.6986 63.2255 13.2013 63.6542C14.3812 64.6433 15.2245 65.9747 15.6145 67.4641C16.0045 68.9536 15.9218 70.5274 15.3779 71.9678C14.2654 74.9202 11.4253 76.9566 8.35803 76.9999C7.30456 77.0041 6.2613 76.7934 5.29205 76.3806C4.32279 75.9679 3.4479 75.3618 2.72086 74.5994C1.99382 73.837 1.42991 72.9343 1.06361 71.9466C0.697303 70.9588 0.536298 69.9068 0.590438 68.8547C0.845615 64.583 4.88762 61.2504 9.16694 61.7761C9.3226 61.7965 9.4757 61.8297 9.75385 61.8781L14.9237 49.8287C8.95692 46.8537 4.36991 41.6888 2.12039 35.4124C-0.129129 29.136 0.132734 22.2332 2.85131 16.1453C7.93699 4.80268 20.2697 -1.55889 32.1201 1.2353C38.8542 2.8225 44.1874 6.55064 48.0712 12.259C51.955 17.9673 53.2896 24.2523 52.1541 31.1421C52.7104 31.285 53.2258 31.4176 53.7413 31.5452C54.2567 31.6728 54.7263 31.7851 55.3004 31.9229C56.8851 29.0573 59.3245 27.5364 62.6776 27.5032C63.5758 24.1298 64.3924 20.764 65.385 17.4493C65.8494 15.8978 65.8571 14.9358 64.3311 13.7824C61.5038 11.6465 60.9781 7.70149 62.6674 4.6266C63.4788 3.11404 64.7765 1.91926 66.3508 1.23536C67.9251 0.551452 69.6841 0.418377 71.3434 0.857638C73.0115 1.32736 74.4744 2.34176 75.4992 3.73925C76.5239 5.13675 77.0516 6.83696 76.9981 8.56909C76.8552 11.9706 74.2473 15.1731 70.8407 15.6273C69.1718 15.8518 68.6487 16.5357 68.317 18.0311C67.6203 21.1621 66.7374 24.2548 65.8698 27.345C65.6657 28.0748 65.7703 28.4448 66.4312 28.8761C67.8208 29.7734 68.8745 31.1052 69.4284 32.6638C69.9822 34.2224 70.0051 35.9205 69.4934 37.4934C68.9644 39.0931 67.9279 40.4765 66.5412 41.4336C65.1544 42.3906 63.4933 42.869 61.81 42.796C58.1584 42.6454 54.8819 39.4787 54.665 35.8271C54.6191 35.0616 54.3511 34.763 53.6443 34.6456C52.9375 34.5283 52.2255 34.3343 51.4778 34.1634C50.9394 35.4188 50.4571 36.659 49.8881 37.8456C49.3191 39.0321 48.6122 40.1753 47.9845 41.2726L60.2891 53.5925C61.4119 53.0669 61.8508 53.1766 62.8103 54.1386C66.8829 58.2215 70.9657 62.2924 75.0588 66.3514C77.238 68.5127 77.6437 71.409 76.0642 73.9199C74.454 76.4717 71.4072 77.6736 68.8146 76.6146C67.907 76.2363 67.0805 75.687 66.3802 74.9968C62.2234 70.914 58.1227 66.7724 53.999 62.6564C53.1824 61.8628 53.0957 61.3525 53.6111 60.2246ZM26.5088 3.64162C14.0765 3.62631 3.65767 14.1039 3.6398 26.6663C3.62449 39.1521 13.9617 49.4536 26.5368 49.4893C39.0405 49.5225 49.4824 39.0959 49.4849 26.5846C49.49 14.1626 38.9742 3.66459 26.5088 3.64162ZM57.13 61.3831C57.2117 61.4801 57.2831 61.5821 57.3699 61.6714C61.1295 65.4226 64.8917 69.1728 68.6564 72.9222C70.042 74.2925 71.596 74.2746 72.9382 72.9477C74.2805 71.6208 74.3213 70.0413 72.9663 68.671C69.2739 64.9377 65.5662 61.2325 61.8508 57.5172C61.6977 57.3641 61.5293 57.2314 61.4093 57.1267L57.13 61.3831ZM57.6659 35.2325C57.674 36.446 58.1638 37.6065 59.0276 38.4588C59.8914 39.3111 61.0584 39.7854 62.2718 39.7772C63.4853 39.7691 64.6458 39.2793 65.4981 38.4155C66.3504 37.5517 66.8247 36.3848 66.8165 35.1713C66.8084 33.9579 66.3186 32.7973 65.4548 31.945C64.591 31.0927 63.424 30.6185 62.2106 30.6266C60.9971 30.6347 59.8366 31.1245 58.9843 31.9883C58.132 32.8521 57.6578 34.0191 57.6659 35.2325ZM3.6398 69.3472C3.65659 70.5518 4.13931 71.7031 4.98666 72.5595C5.83401 73.4159 6.98013 73.9108 8.18451 73.9404C8.8133 73.9868 9.44492 73.9033 10.04 73.695C10.6352 73.4867 11.181 73.1582 11.6436 72.7298C12.1063 72.3014 12.4757 71.7823 12.729 71.205C12.9823 70.6276 13.1141 70.0042 13.116 69.3737C13.1179 68.7432 12.99 68.1191 12.7403 67.5401C12.4905 66.9612 12.1242 66.4399 11.6642 66.0087C11.2042 65.5775 10.6604 65.2456 10.0666 65.0337C9.47274 64.8217 8.84164 64.7344 8.21258 64.777C7.00699 64.7985 5.85678 65.2869 5.00393 66.1393C4.15108 66.9917 3.66207 68.1416 3.6398 69.3472ZM64.7802 8.25522C64.8624 9.41432 65.3807 10.4992 66.2309 11.2913C67.0811 12.0834 68.1999 12.5238 69.3619 12.5238C70.5239 12.5238 71.6427 12.0834 72.4929 11.2913C73.3431 10.4992 73.8615 9.41432 73.9436 8.25522C73.9882 7.62627 73.9028 6.99487 73.6927 6.40036C73.4826 5.80585 73.1524 5.26096 72.7226 4.79962C72.2928 4.33829 71.7726 3.97038 71.1944 3.71883C70.6162 3.46727 69.9925 3.33745 69.3619 3.33745C68.7314 3.33745 68.1076 3.46727 67.5294 3.71883C66.9513 3.97038 66.4311 4.33829 66.0013 4.79962C65.5714 5.26096 65.2412 5.80585 65.0312 6.40036C64.8211 6.99487 64.7357 7.62627 64.7802 8.25522ZM57.9517 55.9529C53.9233 51.9245 49.917 47.9208 45.9329 43.9417L43.8914 45.8632L55.9639 57.9382L57.9517 55.9529Z" fill="white"/>
<path d="M6.70203 26.6074C6.70203 15.6348 15.6103 6.70356 26.542 6.71632C29.1571 6.71833 31.7462 7.23566 34.1613 8.23873C36.5764 9.24181 38.7701 10.711 40.6171 12.5623C42.4641 14.4135 43.9282 16.6107 44.9257 19.028C45.9232 21.4454 46.4346 24.0357 46.4305 26.6508C46.4305 37.3682 37.2901 46.427 26.491 46.427C15.6332 46.4244 6.70203 37.4754 6.70203 26.6074ZM43.0979 28.9958C44.4376 22.8052 40.7529 13.1187 31.1199 10.4087C26.8414 9.19678 22.2566 9.73404 18.3742 11.9023C14.4917 14.0706 11.6296 17.6923 10.4174 21.9708C8.2535 29.4909 12.4384 39.3509 18.6213 41.2086L22.2142 32.8184C22.0254 32.6678 21.9029 32.5632 21.783 32.4688C19.0679 30.1722 18.1952 26.7273 19.54 23.6039C20.8439 20.5724 24.0872 18.6254 27.2821 18.9521C30.6861 19.3017 33.5543 21.8789 34.0264 25.357C34.205 26.6839 34.7613 27.0284 35.8892 27.2632C38.3057 27.771 40.6942 28.3936 43.0954 28.9831L43.0979 28.9958ZM25.0033 34.0994L21.3977 42.4947C29.7598 45.5262 39.7373 40.267 42.3809 31.9635L33.4956 29.8124C31.6099 33.0685 28.8744 34.5766 25.0008 34.0892L25.0033 34.0994ZM21.9795 26.6074C21.9857 27.5178 22.2623 28.4059 22.7743 29.1588C23.2863 29.9117 24.0104 30.4955 24.8548 30.836C25.6993 31.1765 26.6258 31.2583 27.5168 31.0712C28.4079 30.884 29.2232 30.4362 29.8592 29.7847C30.4952 29.1332 30.9233 28.3074 31.089 27.4121C31.2547 26.5169 31.1507 25.5926 30.79 24.7566C30.4293 23.9206 29.8283 23.2106 29.0633 22.7169C28.2984 22.2232 27.4039 21.9679 26.4936 21.9836C25.2893 22.0211 24.1464 22.5237 23.3048 23.3858C22.4631 24.248 21.9881 25.4026 21.9795 26.6074Z" fill="white"/>
<path d="M18.0062 16.145C19.3688 16.1858 20.068 17.4464 19.476 18.4416C19.3151 18.6769 19.1304 18.895 18.9248 19.0923C16.2888 21.912 15.337 25.214 16.1434 29.011C16.3858 30.144 16.0234 30.93 15.1507 31.1622C14.278 31.3944 13.5278 30.9504 13.2395 30.0369C11.8589 25.6989 13.6146 19.5414 17.1003 16.6018C17.3808 16.4103 17.6854 16.2568 18.0062 16.145Z" fill="white"/>
</svg>
