<svg width="76" height="76" viewBox="0 0 76 76" fill="none" xmlns="http://www.w3.org/2000/svg">
<path d="M8.09239 10.2296V4.59399C8.09239 1.5998 9.69219 0 12.7134 0C23.4257 0 34.1395 0 44.8547 0C53.3897 0 61.9241 0 70.4577 0C71.6363 0 72.7402 0.207497 73.6387 1.00844C74.6305 1.8903 75.0476 3.00456 75.0455 4.32839C75.0358 12.0182 75.0358 19.7067 75.0455 27.3938C75.0455 36.377 75.0455 45.3596 75.0455 54.3414C75.0455 57.2464 73.4416 58.867 70.5407 58.8856C69.3788 58.8856 68.2147 58.8856 66.9531 58.8856V60.6348C66.9531 62.0873 66.9635 63.5398 66.9531 64.9923C66.9324 67.3453 65.2641 69.0717 62.8945 69.1007C59.6534 69.1422 56.4102 69.1152 53.167 69.1173H52.1814C52.1606 69.4286 52.1337 69.6776 52.1316 69.9266C52.1316 71.4019 52.1316 72.8772 52.1316 74.3525C52.1316 75.7344 51.8722 76 50.509 76H32.6767C32.5459 76 32.4173 76 32.2866 76C31.3694 75.9606 31.0229 75.6244 31.0146 74.7073C31.0001 73.1531 31.0146 71.5948 31.0146 70.0469V69.0966H30.0228C21.4891 69.0966 12.9534 69.0966 4.41554 69.0966C2.11647 69.0966 0.531193 67.9055 0.0912988 65.8658C0.0246993 65.5102 -0.00450928 65.1486 0.00414994 64.7869C0.00138331 48.0404 0 31.292 0 14.5414C0 11.9684 1.68903 10.267 4.27859 10.2317C5.5215 10.2151 6.76026 10.2296 8.09239 10.2296ZM10.1196 14.9771V15.6847C10.1196 28.6284 10.1196 41.5714 10.1196 54.5137C10.1196 56.1093 10.8853 56.8563 12.5328 56.8584C18.7328 56.8584 24.9329 56.8584 31.1329 56.8584C31.3404 56.8584 31.5479 56.821 31.9629 56.7795C31.6516 56.626 31.5479 56.5617 31.4275 56.5202C29.5227 55.8334 29.0911 54.6921 30.0726 52.9242C30.9026 51.4303 31.7325 49.9384 32.5625 48.4485C35.065 43.95 37.5694 39.4542 40.076 34.9612C40.8541 33.5689 42.2547 33.5689 43.0453 34.9405C43.369 35.5007 43.6678 36.0692 43.9915 36.6336C47.0472 42.1282 50.1023 47.622 53.1566 53.1151C54.0094 54.6527 53.5198 55.9122 51.8743 56.4787C51.6959 56.5409 51.5278 56.6322 51.3556 56.709L51.3846 56.8646H52.1274C58.2486 56.8646 64.3705 56.8646 70.493 56.8646C72.3128 56.8646 73.0183 56.1446 73.0183 54.3124V14.9771H71.9289C59.6077 14.9771 47.2865 14.9771 34.9654 14.9771C34.5528 14.9965 34.1412 14.9237 33.7604 14.764C33.3795 14.6043 33.0391 14.3616 32.7638 14.0538C31.5327 12.73 30.2697 11.4345 28.9749 10.1674C28.7027 9.91652 28.3508 9.76959 27.981 9.75237C25.4143 9.71709 22.8454 9.73162 20.2766 9.73162H18.9383C18.9037 9.80478 18.8766 9.88125 18.8573 9.95987C18.8573 10.8673 18.8532 11.7734 18.8449 12.6781C18.8449 14.3069 18.1685 14.9792 16.5272 14.9834L10.1196 14.9771ZM34.7184 61.4358C34.679 60.9814 34.6728 60.6265 34.6126 60.28C34.374 58.9002 34.3678 58.9002 33.0045 58.9002C26.2359 58.9002 19.4667 58.9002 12.6968 58.9002C9.69012 58.896 8.09239 57.2921 8.09239 54.2958C8.09239 40.601 8.09239 26.9103 8.09239 13.2238V12.261C6.84741 12.261 5.71032 12.261 4.56494 12.261C2.74311 12.261 2.01895 12.9873 2.01895 14.8008C2.01895 31.3909 2.01895 47.9803 2.01895 64.569C2.01895 66.3867 2.72444 67.0838 4.56909 67.0838H30.8445C30.9441 66.9739 30.9773 66.9552 30.9773 66.9365C30.9897 65.8513 30.9876 64.764 31.0146 63.6788C31.0499 62.2741 31.8674 61.4648 33.2514 61.4358C33.71 61.4192 34.1686 61.4358 34.7184 61.4358ZM73.0079 12.9582C73.0079 9.87687 73.0203 6.92626 73.0079 3.97772C73.0204 3.62239 72.9239 3.27174 72.7314 2.9728C72.5389 2.67386 72.2596 2.44094 71.931 2.30529C71.4221 2.12084 70.8825 2.03562 70.3416 2.05422C54.2066 2.04177 38.0723 2.03831 21.9387 2.04385C18.8262 2.04385 15.7138 2.04385 12.6013 2.04385C10.8542 2.04385 10.13 2.76594 10.1279 4.48194C10.1279 7.04522 10.1279 9.60781 10.1279 12.1697C10.1279 12.4166 10.1549 12.6636 10.1694 12.9105H16.8259C16.8259 11.8896 16.8259 10.9144 16.8259 9.93704C16.8259 8.38496 17.5086 7.694 19.042 7.69192C22.1275 7.69192 25.2151 7.7023 28.3026 7.69192C28.6641 7.67766 29.0243 7.74335 29.3575 7.88431C29.6907 8.02526 29.9887 8.23802 30.2303 8.50739C31.4753 9.82707 32.7597 11.1073 33.9984 12.4312C34.1566 12.6114 34.3537 12.7535 34.5747 12.8466C34.7957 12.9396 35.035 12.9814 35.2745 12.9686C47.568 12.9534 59.8629 12.9534 72.1592 12.9686L73.0079 12.9582ZM51.5444 54.4161L42.7818 38.6464L42.5867 38.7045C42.5867 40.1943 42.5701 41.6841 42.6075 43.1719C42.6075 43.3545 42.871 43.5869 43.064 43.6968C44.3816 44.4999 44.9958 45.8797 44.6243 47.2658C44.4433 47.9339 44.0503 48.5251 43.5043 48.9506C42.9584 49.376 42.289 49.6127 41.597 49.625C40.8905 49.6489 40.1977 49.427 39.6365 48.9971C39.0754 48.5673 38.6807 47.9561 38.5198 47.2679C38.1463 45.8444 38.748 44.5061 40.0511 43.6885C40.1833 43.5905 40.2937 43.4661 40.3755 43.3232C40.4573 43.1804 40.5086 43.0222 40.5263 42.8586C40.5844 41.9041 40.5491 40.9454 40.5491 39.9889V38.6692L40.3416 38.6547L31.6101 54.3643C34.984 55.5781 36.6814 57.927 36.7976 61.4026H46.3549C46.4794 57.8793 48.1892 55.5449 51.5444 54.4161ZM50.0525 63.4941H33.1186V73.8898H50.0525V63.4941ZM48.3074 61.4192H49.3574C51.4593 61.4192 52.1212 62.0956 52.1212 64.2245C52.1212 65.1458 52.1212 66.0692 52.1212 67.0382C55.8873 67.0382 59.5621 67.0631 63.2369 67.0195C64.0917 67.0195 64.8616 66.1999 64.8844 65.318C64.9404 63.2016 64.9031 61.0851 64.9031 58.8753H61.222C57.3585 58.8753 53.4969 58.8753 49.6333 58.8877C49.3677 58.8877 48.9278 59.0101 48.8677 59.1803C48.6419 59.9163 48.4549 60.6636 48.3074 61.4192ZM42.6759 46.4047C42.6727 46.2566 42.6402 46.1107 42.5802 45.9753C42.5203 45.8399 42.4341 45.7177 42.3266 45.6158C42.2191 45.5139 42.0925 45.4344 41.9541 45.3817C41.8157 45.3291 41.6682 45.3044 41.5202 45.3091C41.2216 45.3262 40.9419 45.4605 40.7418 45.6828C40.5417 45.905 40.4374 46.1973 40.4516 46.496C40.4445 46.645 40.4697 46.7938 40.5255 46.9323C40.5812 47.0707 40.6661 47.1954 40.7744 47.2981C40.8828 47.4007 41.0119 47.4787 41.1532 47.5269C41.2944 47.575 41.4444 47.5921 41.5928 47.577C41.8904 47.5641 42.1709 47.4344 42.3736 47.2162C42.5764 46.9979 42.685 46.7086 42.6759 46.4109V46.4047Z" fill="white"/>
<path d="M58.9643 41.2922C57.7546 35.7313 52.5464 29.9836 45.9335 28.5125C45.892 28.7304 45.8484 28.9462 45.8111 29.164C45.6368 30.1372 44.9437 30.8053 43.9436 30.824C42.3888 30.8614 40.8325 30.8614 39.2749 30.824C38.0839 30.795 37.478 30.0708 37.2912 28.5893C32.7616 29.191 26.0594 33.8659 24.1712 41.2694C24.5053 41.2985 24.8248 41.3234 25.1464 41.3566C26.1984 41.4624 26.9247 42.0953 26.962 43.1327C27.0243 44.7595 27.0243 46.3946 26.962 48.0214C26.9226 49.0879 26.1486 49.781 25.0759 49.8017C23.5197 49.8328 21.9634 49.8349 20.4072 49.8017C19.2867 49.7768 18.5397 48.9862 18.5127 47.8512C18.4878 46.3759 18.492 44.9006 18.5127 43.4253C18.5273 42.1534 19.2494 41.423 20.5317 41.3503C21.9946 41.257 21.9842 41.2549 22.449 39.8709C24.138 34.81 27.3355 30.9921 31.9938 28.3735C32.192 28.2752 32.3583 28.1226 32.4732 27.9336H31.8195C29.0951 27.9336 26.3707 27.9336 23.6483 27.9336C23.2167 27.9336 22.9615 28.0228 22.7519 28.4606C21.9655 30.1061 20.0545 30.9402 18.2347 30.4982C17.3604 30.278 16.5862 29.7687 16.0377 29.053C15.4893 28.3373 15.1989 27.4573 15.2135 26.5558C15.2119 25.6679 15.5158 24.8065 16.0743 24.1161C16.6327 23.4258 17.4117 22.9487 18.2804 22.7648C20.2142 22.3498 22.1087 23.1943 22.7727 24.9456C23.0984 25.8109 23.5508 25.9312 24.3476 25.925C28.344 25.8897 32.3383 25.9084 36.3347 25.9084H37.3141C37.3141 25.4042 37.3037 24.9518 37.3141 24.4995C37.3514 23.1342 38.0735 22.3934 39.4471 22.3664C40.8208 22.3394 42.2484 22.3394 43.649 22.3664C45.0496 22.3934 45.7758 23.1466 45.8007 24.5597C45.8007 24.9747 45.8007 25.3772 45.8007 25.8461C46.0808 25.869 46.3049 25.9063 46.5269 25.9063C50.7806 25.9063 55.0343 25.9063 59.2901 25.9208C59.8192 25.9208 60.035 25.7694 60.2114 25.2652C60.5058 24.4114 61.0889 23.687 61.8601 23.217C62.6312 22.7469 63.5422 22.5606 64.436 22.6901C66.482 22.9765 67.8763 24.4186 68.005 26.3856C68.0768 27.2854 67.8321 28.182 67.313 28.9204C66.7939 29.6588 66.0332 30.1927 65.1623 30.4298C63.2782 30.9796 61.4377 30.1994 60.4521 28.4772C60.3172 28.2407 59.9873 27.9647 59.7445 27.9626C56.8147 27.9273 53.8827 27.9398 50.9508 27.9439C50.8503 27.9621 50.7522 27.9913 50.6582 28.0311C50.8657 28.168 51.0006 28.2697 51.1458 28.3486C56.1175 31.1263 59.3925 35.2472 60.9708 40.7113C61.114 41.2134 61.3194 41.4001 61.8195 41.3545C62.1557 41.3265 62.4937 41.3265 62.83 41.3545C64.021 41.4437 64.7452 42.1845 64.7618 43.3589C64.7846 44.8342 64.7825 46.3116 64.7618 47.7869C64.7452 49.0008 63.9775 49.7893 62.7719 49.8121C61.2682 49.837 59.7639 49.837 58.2588 49.8121C57.1114 49.7934 56.327 49.0921 56.2814 47.9446C56.2191 46.3676 56.2191 44.7865 56.2814 43.2095C56.327 42.0911 57.0637 41.452 58.2007 41.3545L58.9643 41.2922ZM43.7818 28.8196V24.4621H39.3807V28.8196H43.7818ZM58.2588 47.8035H62.6827V43.4274H58.2588V47.8035ZM24.9265 47.8035V43.4461H20.5421V47.8035H24.9265ZM21.1646 26.5994C21.1602 26.0782 20.9489 25.5802 20.5773 25.2148C20.2057 24.8494 19.7041 24.6466 19.183 24.651C18.6618 24.6554 18.1638 24.8666 17.7984 25.2382C17.433 25.6099 17.2302 26.1114 17.2346 26.6326C17.2347 26.8915 17.2869 27.1478 17.3879 27.3862C17.489 27.6245 17.6369 27.8402 17.8228 28.0204C18.0088 28.2006 18.2291 28.3415 18.4705 28.435C18.712 28.5284 18.9698 28.5724 19.2286 28.5644C20.3885 28.5478 21.1646 27.7572 21.1646 26.5994ZM65.9093 26.5994C65.9123 26.3406 65.8635 26.0838 65.7656 25.8442C65.6678 25.6046 65.5229 25.3871 65.3395 25.2045C65.1561 25.0219 64.9379 24.8779 64.6979 24.781C64.4579 24.6842 64.201 24.6364 63.9422 24.6406C63.6844 24.644 63.4298 24.6981 63.193 24.7999C62.9561 24.9017 62.7417 25.0492 62.5618 25.2339C62.3819 25.4185 62.2402 25.6368 62.1447 25.8763C62.0492 26.1158 62.0018 26.3717 62.0052 26.6295C62.0086 26.8872 62.0628 27.1418 62.1645 27.3787C62.2663 27.6155 62.4138 27.83 62.5985 28.0099C62.7831 28.1897 63.0015 28.3314 63.2409 28.4269C63.4804 28.5224 63.7363 28.5698 63.9941 28.5664C65.1664 28.5498 65.9093 27.7883 65.901 26.5973L65.9093 26.5994Z" fill="white"/>
<path d="M58.0535 7.49043C58.0508 7.11376 58.1227 6.74028 58.2652 6.39157C58.4076 6.04287 58.6177 5.72584 58.8834 5.45882C59.1491 5.19179 59.465 4.98006 59.813 4.83586C60.161 4.69165 60.5341 4.61783 60.9108 4.61866C61.6691 4.61646 62.3973 4.9156 62.935 5.45027C63.4728 5.98494 63.7762 6.71134 63.7784 7.46968C63.7806 8.22801 63.4815 8.95616 62.9468 9.49395C62.4121 10.0317 61.6857 10.3351 60.9274 10.3373C60.5509 10.3422 60.1772 10.2722 59.828 10.1312C59.4789 9.99025 59.1613 9.78117 58.8938 9.51618C58.6263 9.25119 58.4142 8.93559 58.27 8.5878C58.1257 8.24 58.0521 7.86695 58.0535 7.49043ZM61.8341 7.71867L61.8487 7.35763C61.5374 7.12731 61.2262 6.72061 60.917 6.72061C60.6431 6.72061 60.2177 7.13561 60.1264 7.43233C60.0917 7.53843 60.0846 7.65165 60.1059 7.76125C60.1272 7.87085 60.1761 7.97321 60.248 8.05862C60.3199 8.14403 60.4124 8.20966 60.5168 8.2493C60.6211 8.28895 60.7339 8.30128 60.8444 8.28514C61.1847 8.25402 61.5001 7.91787 61.8341 7.71867Z" fill="white"/>
<path d="M56.8313 7.47014C56.8348 7.84671 56.7637 8.22025 56.622 8.56915C56.4803 8.91805 56.2708 9.2354 56.0057 9.50284C55.7406 9.77028 55.425 9.98251 55.0774 10.1272C54.7297 10.272 54.3568 10.3463 53.9802 10.3461C53.4151 10.3477 52.8621 10.1818 52.3912 9.86934C51.9202 9.55688 51.5525 9.11187 51.3343 8.59051C51.1161 8.06916 51.0574 7.49484 51.1654 6.9401C51.2735 6.38536 51.5435 5.87509 51.9414 5.47372C52.3393 5.07236 52.8472 4.79791 53.4009 4.68504C53.9547 4.57217 54.5295 4.62595 55.0528 4.83957C55.576 5.0532 56.0242 5.41709 56.3407 5.88529C56.6573 6.35349 56.828 6.90499 56.8313 7.47014ZM54.1338 6.55508H53.7873C53.5798 6.87878 53.1855 7.21077 53.2 7.52617C53.2146 7.80214 53.642 8.21921 53.9491 8.28561C54.059 8.31601 54.1749 8.31768 54.2856 8.29046C54.3964 8.26324 54.4983 8.20805 54.5816 8.13017C54.6649 8.05229 54.7268 7.95432 54.7614 7.84566C54.7959 7.73699 54.8021 7.62127 54.7791 7.50957C54.7148 7.16512 54.3641 6.86633 54.1421 6.54678L54.1338 6.55508Z" fill="white"/>
<path d="M67.8183 10.3376C67.059 10.3322 66.3324 10.0285 65.7951 9.49197C65.2578 8.95548 64.953 8.22924 64.9465 7.47C64.9465 6.90378 65.1143 6.35026 65.4286 5.8793C65.7429 5.40834 66.1897 5.04105 66.7126 4.8238C67.2355 4.60656 67.811 4.54909 68.3665 4.65865C68.9221 4.76821 69.4327 5.03989 69.8339 5.4394C70.2352 5.83891 70.5091 6.34833 70.621 6.90337C70.733 7.45841 70.678 8.03418 70.463 8.558C70.2481 9.08182 69.8827 9.53021 69.4131 9.84657C68.9435 10.1629 68.3907 10.3331 67.8245 10.3355L67.8183 10.3376ZM68.7624 7.64015V7.29363C68.4346 7.08613 68.0963 6.69396 67.783 6.71264C67.4697 6.73131 67.0838 7.16498 67.0194 7.47415C66.9916 7.58381 66.9918 7.69873 67.0202 7.80826C67.0486 7.9178 67.1041 8.0184 67.1817 8.10075C67.2593 8.1831 67.3564 8.24453 67.4641 8.27936C67.5717 8.31419 67.6864 8.32129 67.7975 8.29999C68.1461 8.23359 68.4429 7.87255 68.7624 7.64845V7.64015Z" fill="white"/>
</svg>
